<svg xmlns="http://www.w3.org/2000/svg" width="1400" height="800"><g class="triangles"><path class="primary" d="M-238.394-250.674l-15.492 669.004 12.599-486.184z" fill="#f9f9f9" stroke="#f9f9f9"/><path class="primary" d="M-238.394-250.674l-2.893 182.82 89.328-156.617z" fill="#f9f9f9" stroke="#f9f9f9"/><path class="primary" d="M-238.394-250.674l86.435 26.203 136.144 14.506z" fill="#fafafa" stroke="#fafafa"/><path class="primary" d="M-238.394-250.674l222.579 40.709 472.192-43.332z" fill="#f7f7f7" stroke="#f7f7f7"/><path d="M-241.287-67.854l-12.599 486.184 12.998-243.888z" fill="#fff" stroke="#fff"/><path d="M-241.287-67.854l.399 242.296 3.023-205.65z" fill="#f8f8f8" stroke="#f8f8f8"/><path d="M-241.287-67.854l3.422 36.646 165.187 3.258z" fill="#fbfbfb" stroke="#fbfbfb"/><path d="M-241.287-67.854L-72.678-27.95l-2.624-90.46z" fill="#f7f7f7" stroke="#f7f7f7"/><path d="M-241.287-67.854l165.985-50.556-76.657-106.061zm3.422 36.646l-3.023 205.65 13.923-106.356z" fill="#fdfdfd" stroke="#fdfdfd"/><path d="M-237.865-31.208l10.9 99.294 123.016-.94z" fill="#f6f6f6" stroke="#f6f6f6"/><path d="M-237.865-31.208l133.916 98.353 31.27-95.095z" fill="#fff" stroke="#fff"/><path d="M-226.965 68.086l-13.923 106.356 126.627 17.933z" fill="#fbfbfb" stroke="#fbfbfb"/><path d="M-226.965 68.086l112.704 124.29 10.312-125.23z" fill="#fff" stroke="#fff"/><path d="M-240.888 174.442l-12.998 243.888 33.961-77.355z" fill="#f8f8f8" stroke="#f8f8f8"/><path d="M-240.888 174.442l20.963 166.533 105.664-148.6z" fill="#f9f9f9" stroke="#f9f9f9"/><path d="M-219.925 340.975l-33.96 77.355 105.894-63.321z" fill="#fdfdfd" stroke="#fdfdfd"/><path d="M-219.925 340.975l71.934 14.034 33.73-162.634z" fill="#fdfdfd" stroke="#fdfdfd"/><path d="M-253.886 418.33l9.258 584.876 6.317-212.39z" fill="#fafafa" stroke="#fafafa"/><path d="M-253.886 418.33l15.575 372.485 13.313-95.597z" fill="#fdfdfd" stroke="#fdfdfd"/><path d="M-253.886 418.33l28.888 276.888.944-148.101z" fill="#f7f7f7" stroke="#f7f7f7"/><path d="M-253.886 418.33l29.832 128.787 115.788-92.129z" fill="#fdfdfd" stroke="#fdfdfd"/><path d="M-253.886 418.33l145.62 36.658-39.725-99.98z" fill="#f8f8f8" stroke="#f8f8f8"/><path d="M-224.054 547.117l-.944 148.1 93.547-58.335z" fill="#fbfbfb" stroke="#fbfbfb"/><path d="M-224.054 547.117l92.603 89.765 21.26-50.863z" fill="#f9f9f9" stroke="#f9f9f9"/><path d="M-224.054 547.117l113.863 38.902 1.925-131.03z" fill="#f8f8f8" stroke="#f8f8f8"/><path d="M-224.998 695.218l-13.313 95.597 121.482-57.45z" fill="#fdfdfd" stroke="#fdfdfd"/><path d="M-224.998 695.218l108.169 38.147-14.622-96.483z" fill="#fefefe" stroke="#fefefe"/><path d="M-238.31 790.815l-6.318 212.39 51.835-111.727z" fill="#fbfbfb" stroke="#fbfbfb"/><path d="M-238.31 790.815l45.517 100.663 62.775-46.747z" fill="#fafafa" stroke="#fafafa"/><path d="M-238.31 790.815l108.292 53.916 13.189-111.366z" fill="#fcfcfc" stroke="#fcfcfc"/><path d="M-192.793 891.478l-51.835 111.728 126.938-5.764z" fill="#fefefe" stroke="#fefefe"/><path d="M-192.793 891.478l75.103 105.964-12.328-152.71zm-51.835 111.728l653.927 1.215-526.989-6.979z" fill="#fdfdfd" stroke="#fdfdfd"/><path d="M-151.96-224.471l76.658 106.06 59.487-91.554z" fill="#fafafa" stroke="#fafafa"/><path d="M-75.302-118.41l2.624 90.46 38.446-77.18z" fill="#fbfbfb" stroke="#fbfbfb"/><path d="M-75.302-118.41l41.07 13.28 18.417-104.835z" fill="#f9f9f9" stroke="#f9f9f9"/><path d="M-72.678-27.95l-31.271 95.095 71.123-85.44z" fill="#fefefe" stroke="#fefefe"/><path d="M-72.678-27.95l39.852 9.655-1.406-86.836z" fill="#f7f7f7" stroke="#f7f7f7"/><path d="M-103.949 67.145l-10.312 125.23 119.108-3.38z" fill="#fff" stroke="#fff"/><path d="M-103.949 67.145L4.847 188.995l33.487-99.86z" fill="#f9f9f9" stroke="#f9f9f9"/><path d="M-103.949 67.145l142.283 21.99-71.16-107.43zm-10.312 125.23l-33.73 162.634L6.374 333.44z" fill="#fafafa" stroke="#fafafa"/><path d="M-114.261 192.375L6.374 333.44 4.847 188.995z" fill="#f6f6f6" stroke="#f6f6f6"/><path d="M-147.99 355.009l39.724 99.98 72.031-23.307z" fill="#fbfbfb" stroke="#fbfbfb"/><path d="M-147.99 355.009l111.755 76.673L6.374 333.44z" fill="#f8f8f8" stroke="#f8f8f8"/><path d="M-108.266 454.988l-1.925 131.03 93.647-47.78z" fill="#fff" stroke="#fff"/><path d="M-108.266 454.988l91.722 83.25-19.69-106.556z" fill="#f9f9f9" stroke="#f9f9f9"/><path d="M-110.19 586.019l-21.261 50.863L8.272 687.775z" fill="#fdfdfd" stroke="#fdfdfd"/><path d="M-110.19 586.019L8.271 687.775l-24.816-149.538zm-21.261 50.863l14.622 96.483 125.1-45.59z" fill="#fcfcfc" stroke="#fcfcfc"/><path d="M-116.83 733.365l-13.188 111.366 146.335-90.13z" fill="#f9f9f9" stroke="#f9f9f9"/><path d="M-116.83 733.365l133.147 21.236-8.045-66.826z" fill="#fbfbfb" stroke="#fbfbfb"/><path d="M-130.018 844.731l12.328 152.711 115.51-82.26z" fill="#f8f8f8" stroke="#f8f8f8"/><path d="M-130.018 844.731L-2.18 915.182l18.497-160.581z" fill="#fcfcfc" stroke="#fcfcfc"/><path d="M-117.69 997.442l526.99 6.98-225.074-33.63z" fill="#fff" stroke="#fff"/><path d="M-117.69 997.442l301.916-26.65-176.01-22.408z" fill="#fbfbfb" stroke="#fbfbfb"/><path d="M-117.69 997.442L8.216 948.384-2.18 915.182zM-15.815-209.965l-18.417 104.834 117.314-77.686z" fill="#fafafa" stroke="#fafafa"/><path d="M-15.815-209.965l98.897 27.148 373.295-70.48z" fill="#f6f6f6" stroke="#f6f6f6"/><path d="M-34.232-105.13l1.406 86.835L79.35-7.063z" fill="#fdfdfd" stroke="#fdfdfd"/><path d="M-34.232-105.13L79.351-7.064l57.882-123.604z" fill="#f6f6f6" stroke="#f6f6f6"/><path d="M-34.232-105.13l171.465-25.537-54.151-52.15z" fill="#fdfdfd" stroke="#fdfdfd"/><path d="M-32.826-18.295l71.16 107.43L79.351-7.063z" fill="#fafafa" stroke="#fafafa"/><path d="M38.334 89.135l-33.487 99.86 77.81-65.956z" fill="#fcfcfc" stroke="#fcfcfc"/><path d="M38.334 89.135l44.322 33.904L79.351-7.063zm-33.487 99.86L6.374 333.44l65.61-104.275z" fill="#fefefe" stroke="#fefefe"/><path d="M4.847 188.995l67.138 40.17L82.656 123.04z" fill="#f9f9f9" stroke="#f9f9f9"/><path d="M6.374 333.44l-42.609 98.242 101.741-28.735z" fill="#fefefe" stroke="#fefefe"/><path d="M6.374 333.44l59.132 69.507 4.6-66.05z" fill="#f6f6f6" stroke="#f6f6f6"/><path d="M6.374 333.44l63.732 3.457 1.879-107.732z" fill="#fdfdfd" stroke="#fdfdfd"/><path d="M-36.235 431.682l19.69 106.555 82.051-135.29z" fill="#f6f6f6" stroke="#f6f6f6"/><path d="M-16.544 538.237L8.272 687.775l95.66-34.157zm0 0l120.476 115.38 40.427-80.106z" fill="#fbfbfb" stroke="#fbfbfb"/><path d="M-16.544 538.237l160.903 35.274-78.853-170.564z" fill="#f8f8f8" stroke="#f8f8f8"/><path d="M8.272 687.775l8.045 66.826 87.615-100.983z" fill="#fafafa" stroke="#fafafa"/><path d="M16.317 754.6L-2.18 915.183 72.03 803.01z" fill="#f9f9f9" stroke="#f9f9f9"/><path d="M16.317 754.6l55.712 48.41 31.903-149.392z" fill="#fdfdfd" stroke="#fdfdfd"/><path d="M-2.18 915.182l10.396 33.202 118.471 2.31z" fill="#fafafa" stroke="#fafafa"/><path d="M-2.18 915.182l128.867 35.512 2.862-94.575z" fill="#fff" stroke="#fff"/><path d="M-2.18 915.182l131.729-59.063-57.52-53.109z" fill="#fcfcfc" stroke="#fcfcfc"/><path d="M8.216 948.384l176.01 22.408-57.539-20.098zM83.082-182.817l54.151 52.15 61.746-44.463z" fill="#f8f8f8" stroke="#f8f8f8"/><path d="M83.082-182.817l115.897 7.687 257.398-78.167z" fill="#fdfdfd" stroke="#fdfdfd"/><path d="M137.233-130.667L79.351-7.063 193.09-120.342z" fill="#fbfbfb" stroke="#fbfbfb"/><path d="M137.233-130.667l55.856 10.325 5.89-54.788z" fill="#f8f8f8" stroke="#f8f8f8"/><path d="M79.351-7.063l3.305 130.102 142.478-42.223z" fill="#f9f9f9" stroke="#f9f9f9"/><path d="M79.351-7.063l145.783 87.88 22.49-66.654z" fill="#f7f7f7" stroke="#f7f7f7"/><path d="M79.351-7.063l168.273 21.226-54.535-134.505z" fill="#f9f9f9" stroke="#f9f9f9"/><path d="M82.656 123.04L71.985 229.164l132.437-44.784z" fill="#f7f7f7" stroke="#f7f7f7"/><path d="M82.656 123.04l121.766 61.34 20.712-103.564z" fill="#fbfbfb" stroke="#fbfbfb"/><path d="M71.985 229.165l-1.879 107.732 178.036-26.871z" fill="#fcfcfc" stroke="#fcfcfc"/><path d="M71.985 229.165l176.157 80.86-43.72-125.644z" fill="#f6f6f6" stroke="#f6f6f6"/><path d="M70.106 336.897l-4.6 66.05 135.977 52.396z" fill="#f9f9f9" stroke="#f9f9f9"/><path d="M70.106 336.897l131.377 118.446 46.66-145.317z" fill="#fcfcfc" stroke="#fcfcfc"/><path d="M65.506 402.947L144.36 573.51l57.124-118.168zm78.853 170.564l-40.427 80.107 97.045 38.237z" fill="#fbfbfb" stroke="#fbfbfb"/><path d="M144.359 573.511l56.618 118.344 40.193-108.5z" fill="#fcfcfc" stroke="#fcfcfc"/><path d="M144.359 573.511l96.811 9.844-39.687-128.012z" fill="#f6f6f6" stroke="#f6f6f6"/><path d="M103.932 653.618L72.03 803.01l128.948-111.155z" fill="#fafafa" stroke="#fafafa"/><path d="M72.03 803.01l57.519 53.109 105.248-105.891z" fill="#fdfdfd" stroke="#fdfdfd"/><path d="M72.03 803.01l162.767-52.782-33.82-58.373z" fill="#f6f6f6" stroke="#f6f6f6"/><path d="M129.549 856.119l-2.862 94.575 71.108-38.2z" fill="#f8f8f8" stroke="#f8f8f8"/><path d="M129.549 856.119l68.246 56.374 37.002-162.265z" fill="#fdfdfd" stroke="#fdfdfd"/><path d="M126.687 950.694l57.539 20.098 13.57-58.299z" fill="#fcfcfc" stroke="#fcfcfc"/><path d="M198.98-175.13l-5.89 54.788 100.375 14.366z" fill="#f8f8f8" stroke="#f8f8f8"/><path d="M198.98-175.13l94.485 69.154 35.89-87.005z" fill="#fefefe" stroke="#fefefe"/><path d="M198.98-175.13l130.374-17.85 127.023-60.317z" fill="#fefefe" stroke="#fefefe"/><path d="M193.09-120.342l54.534 134.505 39.103-26.373z" fill="#f7f7f7" stroke="#f7f7f7"/><path d="M193.09-120.342L286.726-12.21l6.738-93.766z" fill="#f6f6f6" stroke="#f6f6f6"/><path d="M247.624 14.163l-22.49 66.653 100.988 5.911z" fill="#f8f8f8" stroke="#f8f8f8"/><path d="M247.624 14.163l78.498 72.564-39.395-98.937z" fill="#fff" stroke="#fff"/><path d="M225.134 80.816l-20.712 103.565 83.178 21.811z" fill="#fafafa" stroke="#fafafa"/><path d="M225.134 80.816L287.6 206.192l38.522-119.465z" fill="#fbfbfb" stroke="#fbfbfb"/><path d="M204.422 184.38l43.72 125.646L287.6 206.192z" fill="#fff" stroke="#fff"/><path d="M248.142 310.026l-46.66 145.317 142.209-100.08z" fill="#f9f9f9" stroke="#f9f9f9"/><path d="M248.142 310.026l95.549 45.238-56.09-149.072z" fill="#f7f7f7" stroke="#f7f7f7"/><path d="M201.483 455.343l39.687 128.012 49.204-7.582z" fill="#fcfcfc" stroke="#fcfcfc"/><path d="M201.483 455.343l88.89 120.43L339.78 453.75z" fill="#f6f6f6" stroke="#f6f6f6"/><path d="M201.483 455.343l138.297-1.593 3.91-98.486z" fill="#fcfcfc" stroke="#fcfcfc"/><path d="M241.17 583.355l-40.193 108.5 126.761-78.587z" fill="#fafafa" stroke="#fafafa"/><path d="M241.17 583.355l86.568 29.913-37.364-37.495z" fill="#fff" stroke="#fff"/><path d="M200.977 691.855l33.82 58.373 92.941-136.96z" fill="#fbfbfb" stroke="#fbfbfb"/><path d="M234.797 750.228l-37.002 162.265 170.699-67.278z" fill="#fdfdfd" stroke="#fdfdfd"/><path d="M234.797 750.228l133.697 94.987L360.369 736z" fill="#f8f8f8" stroke="#f8f8f8"/><path d="M234.797 750.228L360.37 736l-32.63-122.732z" fill="#fff" stroke="#fff"/><path d="M197.795 912.493l-13.57 58.299L362.85 992.94z" fill="#fcfcfc" stroke="#fcfcfc"/><path d="M197.795 912.493L362.85 992.94l5.644-147.725z" fill="#fafafa" stroke="#fafafa"/><path d="M184.226 970.792l225.073 33.63-46.449-11.482z" fill="#fdfdfd" stroke="#fdfdfd"/><path d="M329.354-192.98l-35.89 87.004 116.057-28.304z" fill="#f9f9f9" stroke="#f9f9f9"/><path d="M329.354-192.98l80.167 58.7 46.856-119.017z" fill="#f7f7f7" stroke="#f7f7f7"/><path d="M293.465-105.976l-6.738 93.766 122.794-122.07z" fill="#fefefe" stroke="#fefefe"/><path d="M286.727-12.21l39.395 98.937 132.487-90.59z" fill="#fff" stroke="#fff"/><path d="M286.727-12.21L458.61-3.864 409.521-134.28z" fill="#f6f6f6" stroke="#f6f6f6"/><path d="M326.122 86.727L287.6 206.192l157.818-74.676z" fill="#fdfdfd" stroke="#fdfdfd"/><path d="M326.122 86.727l119.296 44.789L458.61-3.864z" fill="#fcfcfc" stroke="#fcfcfc"/><path d="M287.6 206.192l56.09 149.072 66.247-101.836z" fill="#f7f7f7" stroke="#f7f7f7"/><path d="M287.6 206.192l122.337 47.236 35.481-121.912z" fill="#fbfbfb" stroke="#fbfbfb"/><path d="M343.69 355.264l-3.91 98.486 109.806-50.298z" fill="#f7f7f7" stroke="#f7f7f7"/><path d="M343.69 355.264l105.896 48.188-2.46-57.361z" fill="#fefefe" stroke="#fefefe"/><path d="M343.69 355.264l103.435-9.173-37.188-92.663z" fill="#fbfbfb" stroke="#fbfbfb"/><path d="M339.78 453.75l-49.406 122.023 37.364 37.495z" fill="#f9f9f9" stroke="#f9f9f9"/><path d="M339.78 453.75l-12.042 159.518 134.998-27.596z" fill="#fbfbfb" stroke="#fbfbfb"/><path d="M339.78 453.75l122.956 131.922 55.761-111.983z" fill="#fbfbfb" stroke="#fbfbfb"/><path d="M339.78 453.75l178.717 19.94-68.91-70.238z" fill="#f7f7f7" stroke="#f7f7f7"/><path d="M327.738 613.268L360.37 736l79.897-110.852z" fill="#fcfcfc" stroke="#fcfcfc"/><path d="M327.738 613.268l112.528 11.88 22.47-39.476z" fill="#f6f6f6" stroke="#f6f6f6"/><path d="M360.37 736l8.124 109.215 87.584-70.011z" fill="#f8f8f8" stroke="#f8f8f8"/><path d="M360.37 736l95.708 39.204-15.812-150.056z" fill="#f7f7f7" stroke="#f7f7f7"/><path d="M368.494 845.215L362.85 992.94l89.78-124.163z" fill="#f6f6f6" stroke="#f6f6f6"/><path d="M368.494 845.215l84.136 23.562 3.448-93.573z" fill="#fefefe" stroke="#fefefe"/><path d="M362.85 992.94l46.45 11.481 43.33-135.644z" fill="#f9f9f9" stroke="#f9f9f9"/><path d="M456.377-253.297L409.52-134.28l114.387-42.797z" fill="#fdfdfd" stroke="#fdfdfd"/><path d="M456.377-253.297l67.531 76.22 98.456-70.82z" fill="#f8f8f8" stroke="#f8f8f8"/><path d="M456.377-253.297l165.987 5.4 549.904-4.798z" fill="#fcfcfc" stroke="#fcfcfc"/><path d="M409.52-134.28L458.61-3.864l55.249-10.835z" fill="#fafafa" stroke="#fafafa"/><path d="M409.52-134.28L513.86-14.7l32.254-101.986z" fill="#fcfcfc" stroke="#fcfcfc"/><path d="M409.52-134.28l136.593 17.594-22.205-60.391z" fill="#f6f6f6" stroke="#f6f6f6"/><path d="M458.61-3.864l-13.192 135.38 119.456-30.521z" fill="#f8f8f8" stroke="#f8f8f8"/><path d="M458.61-3.864l106.264 104.859L513.859-14.7z" fill="#fff" stroke="#fff"/><path d="M445.418 131.516l-35.481 121.912 120.645-15.86z" fill="#fdfdfd" stroke="#fdfdfd"/><path d="M445.418 131.516l85.164 106.053 34.292-136.574z" fill="#f6f6f6" stroke="#f6f6f6"/><path d="M409.937 253.428l37.188 92.663 83.457-108.522z" fill="#f9f9f9" stroke="#f9f9f9"/><path d="M447.125 346.09l2.461 57.362L584.38 325.76z" fill="#f6f6f6" stroke="#f6f6f6"/><path d="M447.125 346.09l137.255-20.33-53.798-88.191z" fill="#fafafa" stroke="#fafafa"/><path d="M449.586 403.452l68.911 70.237L584.38 325.76z" fill="#fdfdfd" stroke="#fdfdfd"/><path d="M462.736 585.672l-22.47 39.476 72.93 31.375z" fill="#fbfbfb" stroke="#fbfbfb"/><path d="M462.736 585.672l50.46 70.85 2.513-112.026z" fill="#f6f6f6" stroke="#f6f6f6"/><path d="M462.736 585.672l52.973-41.176 2.788-70.807z" fill="#fff" stroke="#fff"/><path d="M440.266 625.148l15.812 150.056 57.118-118.681z" fill="#f6f6f6" stroke="#f6f6f6"/><path d="M456.078 775.204l-3.448 93.573 129.209.091z" fill="#fff" stroke="#fff"/><path d="M456.078 775.204l125.761 93.664-35.874-127.679z" fill="#fefefe" stroke="#fefefe"/><path d="M456.078 775.204l89.887-34.015-32.77-84.666z" fill="#fdfdfd" stroke="#fdfdfd"/><path d="M452.63 868.777l-43.33 135.644 98.979-26.895z" fill="#f8f8f8" stroke="#f8f8f8"/><path d="M452.63 868.777l55.649 108.75 73.56-108.659z" fill="#f9f9f9" stroke="#f9f9f9"/><path d="M409.3 1004.421l910.635-10.386-520.894-18.792z" fill="#fdfdfd" stroke="#fdfdfd"/><path d="M409.3 1004.421l389.74-29.178-106.295-11.009z" fill="#f9f9f9" stroke="#f9f9f9"/><path d="M409.3 1004.421l283.445-40.187-184.466 13.292z" fill="#fff" stroke="#fff"/><path d="M523.908-177.077l22.205 60.391 76.251-131.21z" fill="#f6f6f6" stroke="#f6f6f6"/><path d="M546.113-116.686L513.859-14.699l136.855 33.77z" fill="#fcfcfc" stroke="#fcfcfc"/><path d="M546.113-116.686L650.714 19.071l20.602-144.443z" fill="#fafafa" stroke="#fafafa"/><path d="M546.113-116.686l125.203-8.686-48.952-122.524z" fill="#f8f8f8" stroke="#f8f8f8"/><path d="M513.859-14.7l51.015 115.695 85.84-81.924z" fill="#f7f7f7" stroke="#f7f7f7"/><path d="M564.874 100.995l-34.292 136.574 107.814-56.558z" fill="#f6f6f6" stroke="#f6f6f6"/><path d="M564.874 100.995l73.522 80.016 16.141-85.796z" fill="#f7f7f7" stroke="#f7f7f7"/><path d="M564.874 100.995l89.663-5.78-3.823-76.144z" fill="#fafafa" stroke="#fafafa"/><path d="M530.582 237.569l53.798 88.191 54.016-144.749z" fill="#fdfdfd" stroke="#fdfdfd"/><path d="M584.38 325.76l-65.883 147.93 126.173-12.911z" fill="#fefefe" stroke="#fefefe"/><path d="M584.38 325.76l60.29 135.019 21.72-123.489z" fill="#fbfbfb" stroke="#fbfbfb"/><path d="M584.38 325.76l82.009 11.531-27.993-156.28z" fill="#f9f9f9" stroke="#f9f9f9"/><path d="M518.497 473.69l-2.788 70.806 128.961-83.717z" fill="#fff" stroke="#fff"/><path d="M515.71 544.496l-2.514 112.027 161.487 5.513z" fill="#fdfdfd" stroke="#fdfdfd"/><path d="M515.71 544.496l158.973 117.54 16.875-111.715z" fill="#fafafa" stroke="#fafafa"/><path d="M515.71 544.496l175.848 5.825-46.888-89.542z" fill="#fcfcfc" stroke="#fcfcfc"/><path d="M513.196 656.523l32.769 84.666 128.718-79.153z" fill="#fdfdfd" stroke="#fdfdfd"/><path d="M545.965 741.19l35.874 127.678 86.389-86.07z" fill="#f8f8f8" stroke="#f8f8f8"/><path d="M545.965 741.19l122.263 41.608 6.455-120.762z" fill="#f6f6f6" stroke="#f6f6f6"/><path d="M581.839 868.868l-73.56 108.658 184.466-13.292z" fill="#f8f8f8" stroke="#f8f8f8"/><path d="M581.839 868.868l110.906 95.366-35.97-119.07z" fill="#fafafa" stroke="#fafafa"/><path d="M581.839 868.868l74.935-23.705 11.454-62.365z" fill="#fefefe" stroke="#fefefe"/><path d="M622.364-247.896l48.952 122.524 74.506-66.326z" fill="#f6f6f6" stroke="#f6f6f6"/><path d="M622.364-247.896l123.458 56.198 140.247 4.812z" fill="#fafafa" stroke="#fafafa"/><path d="M622.364-247.896l263.705 61.01 77.353-17.828z" fill="#fdfdfd" stroke="#fdfdfd"/><path d="M622.364-247.896l341.058 43.182 208.846-47.981z" fill="#fcfcfc" stroke="#fcfcfc"/><path d="M671.316-125.372L650.714 19.071l120.422-1.388z" fill="#f8f8f8" stroke="#f8f8f8"/><path d="M671.316-125.372l99.82 143.055 7.795-169.153z" fill="#fefefe" stroke="#fefefe"/><path d="M671.316-125.372l107.615-26.098-33.109-40.228z" fill="#f9f9f9" stroke="#f9f9f9"/><path d="M650.714 19.071l3.823 76.144 116.599-77.532z" fill="#f7f7f7" stroke="#f7f7f7"/><path d="M654.537 95.215l-16.14 85.796L758.65 136.46z" fill="#fcfcfc" stroke="#fcfcfc"/><path d="M654.537 95.215L758.65 136.46l12.486-118.777z" fill="#f6f6f6" stroke="#f6f6f6"/><path d="M638.396 181.011l27.993 156.28 94.133-142.835z" fill="#fafafa" stroke="#fafafa"/><path d="M638.396 181.011l122.126 13.445-1.872-57.996z" fill="#fff" stroke="#fff"/><path d="M666.389 337.291L644.67 460.78l85.909-104.68z" fill="#fafafa" stroke="#fafafa"/><path d="M666.389 337.291l64.19 18.809 29.943-161.644z" fill="#fbfbfb" stroke="#fbfbfb"/><path d="M644.67 460.779l46.888 89.542 34.971-17.267z" fill="#fafafa" stroke="#fafafa"/><path d="M644.67 460.779l81.86 72.275 32.614-88.442z" fill="#f9f9f9" stroke="#f9f9f9"/><path d="M644.67 460.779l114.474-16.167-28.565-88.512z" fill="#fbfbfb" stroke="#fbfbfb"/><path d="M691.558 550.321l-16.875 111.715 96.01-4.525z" fill="#f6f6f6" stroke="#f6f6f6"/><path d="M691.558 550.321l79.136 107.19-44.165-124.457z" fill="#f9f9f9" stroke="#f9f9f9"/><path d="M674.683 662.036l-6.455 120.762 111.148-32.087z" fill="#fcfcfc" stroke="#fcfcfc"/><path d="M674.683 662.036l104.693 88.675-8.682-93.2z" fill="#fbfbfb" stroke="#fbfbfb"/><path d="M668.228 782.798l-11.454 62.365 140.312-14.959z" fill="#fff" stroke="#fff"/><path d="M668.228 782.798l128.858 47.406-17.71-79.493z" fill="#fbfbfb" stroke="#fbfbfb"/><path d="M656.774 845.163l35.97 119.071 104.342-134.03z" fill="#fafafa" stroke="#fafafa"/><path d="M692.745 964.234l106.296 11.009-1.955-145.039z" fill="#fff" stroke="#fff"/><path d="M745.822-191.698l33.11 40.228 107.137-35.416z" fill="#fcfcfc" stroke="#fcfcfc"/><path d="M778.931-151.47l-7.795 169.153 115.258-122.33z" fill="#fbfbfb" stroke="#fbfbfb"/><path d="M778.931-151.47l107.463 46.823-.325-82.24z" fill="#fdfdfd" stroke="#fdfdfd"/><path d="M771.136 17.683L758.65 136.46l72.179-35.185z" fill="#f7f7f7" stroke="#f7f7f7"/><path d="M771.136 17.683l59.693 83.592 71.868-60.867z" fill="#fefefe" stroke="#fefefe"/><path d="M771.136 17.683l131.56 22.725-16.302-145.055z" fill="#fcfcfc" stroke="#fcfcfc"/><path d="M758.65 136.46l1.872 57.996 75.99-9z" fill="#fdfdfd" stroke="#fdfdfd"/><path d="M758.65 136.46l77.863 48.995-5.684-84.18z" fill="#f8f8f8" stroke="#f8f8f8"/><path d="M760.522 194.456L730.58 356.1l138.274-69.183z" fill="#fefefe" stroke="#fefefe"/><path d="M760.522 194.456l108.331 92.461-32.34-101.462zM730.579 356.1l28.565 88.512 135.935-23.774z" fill="#fbfbfb" stroke="#fbfbfb"/><path d="M730.579 356.1l164.5 64.738-26.226-133.92z" fill="#fff" stroke="#fff"/><path d="M759.144 444.612l-32.615 88.442 165.008 28.98z" fill="#fafafa" stroke="#fafafa"/><path d="M759.144 444.612l132.393 117.421 3.542-141.195z" fill="#fcfcfc" stroke="#fcfcfc"/><path d="M726.53 533.054l44.164 124.457 120.843-95.478z" fill="#f9f9f9" stroke="#f9f9f9"/><path d="M770.694 657.51l8.682 93.201 58.984-76.566z" fill="#fefefe" stroke="#fefefe"/><path d="M770.694 657.51l67.666 16.635 53.177-112.112z" fill="#fdfdfd" stroke="#fdfdfd"/><path d="M779.376 750.711l17.71 79.493 82.092-50.095z" fill="#fff" stroke="#fff"/><path d="M779.376 750.711l99.802 29.398-40.818-105.964z" fill="#f8f8f8" stroke="#f8f8f8"/><path d="M797.086 830.204l1.955 145.039 29.4-7.298z" fill="#fcfcfc" stroke="#fcfcfc"/><path d="M797.086 830.204l31.354 137.741 55.424-108.706z" fill="#f7f7f7" stroke="#f7f7f7"/><path d="M797.086 830.204l86.778 29.035-4.686-79.13z" fill="#fff" stroke="#fff"/><path d="M799.04 975.243l520.895 18.792-308.581-39.507z" fill="#fbfbfb" stroke="#fbfbfb"/><path d="M799.04 975.243l212.314-20.715-182.914 13.417z" fill="#f8f8f8" stroke="#f8f8f8"/><path d="M886.07-186.886l.324 82.239 77.028-100.067z" fill="#f7f7f7" stroke="#f7f7f7"/><path d="M886.394-104.647l16.303 145.055L978.83-73.066z" fill="#fff" stroke="#fff"/><path d="M886.394-104.647l92.436 31.58-15.408-131.647z" fill="#fefefe" stroke="#fefefe"/><path d="M902.697 40.408l-71.868 60.867 139.683-31.692z" fill="#f7f7f7" stroke="#f7f7f7"/><path d="M902.697 40.408l67.815 29.175 30.042-111.448z" fill="#f9f9f9" stroke="#f9f9f9"/><path d="M902.697 40.408l97.857-82.273-21.724-31.201z" fill="#fcfcfc" stroke="#fcfcfc"/><path d="M830.829 101.275l5.684 84.18L970.512 69.583z" fill="#f7f7f7" stroke="#f7f7f7"/><path d="M836.513 185.455l32.34 101.462 91.98-30.45z" fill="#fafafa" stroke="#fafafa"/><path d="M836.513 185.455l124.32 71.012 9.679-186.884z" fill="#f6f6f6" stroke="#f6f6f6"/><path d="M868.853 286.917l26.226 133.921 60.684-83.943z" fill="#fcfcfc" stroke="#fcfcfc"/><path d="M868.853 286.917l86.91 49.978 5.07-80.428z" fill="#fefefe" stroke="#fefefe"/><path d="M895.079 420.838l-3.542 141.195L952 450.566z" fill="#f8f8f8" stroke="#f8f8f8"/><path d="M895.079 420.838L952 450.566l3.762-113.67z" fill="#fcfcfc" stroke="#fcfcfc"/><path d="M891.537 562.033L838.36 674.145l153.048-10.712z" fill="#f6f6f6" stroke="#f6f6f6"/><path d="M891.537 562.033l99.871 101.4 12.032-84.779z" fill="#f7f7f7" stroke="#f7f7f7"/><path d="M891.537 562.033l111.903 16.621L952 450.566z" fill="#fdfdfd" stroke="#fdfdfd"/><path d="M838.36 674.145l40.818 105.964 112.23-116.676z" fill="#fff" stroke="#fff"/><path d="M879.178 780.11l4.686 79.13 121.769 9.406z" fill="#fcfcfc" stroke="#fcfcfc"/><path d="M879.178 780.11l126.455 88.536 2.797-120.338z" fill="#f9f9f9" stroke="#f9f9f9"/><path d="M879.178 780.11l129.252-31.802-17.022-84.875z" fill="#fff" stroke="#fff"/><path d="M883.864 859.24L828.44 967.944l182.914-13.417z" fill="#f7f7f7" stroke="#f7f7f7"/><path d="M883.864 859.24l127.49 95.288-5.721-85.882z" fill="#fff" stroke="#fff"/><path d="M963.422-204.714L978.83-73.066l96.912-148.367z" fill="#f6f6f6" stroke="#f6f6f6"/><path d="M963.422-204.714l112.32-16.72 96.526-31.261z" fill="#f9f9f9" stroke="#f9f9f9"/><path d="M978.83-73.066l21.724 31.2 117.595-68.032z" fill="#fcfcfc" stroke="#fcfcfc"/><path d="M978.83-73.066l139.319-36.832-42.407-111.535z" fill="#fdfdfd" stroke="#fdfdfd"/><path d="M1000.554-41.865L970.512 69.583l106.27-26.784z" fill="#fcfcfc" stroke="#fcfcfc"/><path d="M1000.554-41.865l76.227 84.664 41.368-152.697zM970.512 69.583l-9.68 186.884 94.504-64.305z" fill="#fcfcfc" stroke="#fcfcfc"/><path d="M970.512 69.583l84.824 122.579 58.92-84.015z" fill="#f8f8f8" stroke="#f8f8f8"/><path d="M970.512 69.583l143.743 38.564-37.474-65.348zm-9.679 186.884l-5.07 80.428 93.697 29.112z" fill="#f9f9f9" stroke="#f9f9f9"/><path d="M960.833 256.467l88.627 109.54 5.876-173.845z" fill="#fefefe" stroke="#fefefe"/><path d="M955.763 336.895l-3.762 113.671 97.46-84.56z" fill="#f8f8f8" stroke="#f8f8f8"/><path d="M952 450.566l51.44 128.088 53.428-183.738z" fill="#fdfdfd" stroke="#fdfdfd"/><path d="M952 450.566l104.868-55.65-7.408-28.91z" fill="#f8f8f8" stroke="#f8f8f8"/><path d="M1003.44 578.654l-12.032 84.779 126.064-47.826z" fill="#f7f7f7" stroke="#f7f7f7"/><path d="M1003.44 578.654l114.032 36.953 13.23-86.98z" fill="#fbfbfb" stroke="#fbfbfb"/><path d="M1003.44 578.654l127.263-50.026-73.835-133.712z" fill="#f7f7f7" stroke="#f7f7f7"/><path d="M991.408 663.433l17.022 84.875 99.607-20.688z" fill="#fdfdfd" stroke="#fdfdfd"/><path d="M991.408 663.433l116.629 64.187 9.435-112.013z" fill="#fcfcfc" stroke="#fcfcfc"/><path d="M1008.43 748.308l-2.797 120.338 41.22-12.681z" fill="#fafafa" stroke="#fafafa"/><path d="M1008.43 748.308l38.423 107.657 61.184-128.345z" fill="#fdfdfd" stroke="#fdfdfd"/><path d="M1005.633 868.646l5.72 85.882 60.068-12.01z" fill="#fbfbfb" stroke="#fbfbfb"/><path d="M1005.633 868.646l65.788 73.872-24.568-86.553zm5.721 85.882l308.58 39.507-248.513-51.517z" fill="#f6f6f6" stroke="#f6f6f6"/><path d="M1075.742-221.433l42.407 111.535 54.119-142.797z" fill="#fbfbfb" stroke="#fbfbfb"/><path d="M1118.149-109.898L1076.78 42.799 1195.813-7.39z" fill="#f9f9f9" stroke="#f9f9f9"/><path d="M1118.149-109.898L1195.813-7.39l42.923-130.855z" fill="#fbfbfb" stroke="#fbfbfb"/><path d="M1118.149-109.898l120.587-28.347-66.468-114.45z" fill="#f8f8f8" stroke="#f8f8f8"/><path d="M1076.781 42.8l37.474 65.347L1195.813-7.39z" fill="#fff" stroke="#fff"/><path d="M1114.255 108.147l-58.919 84.015 103.207-47.787z" fill="#f7f7f7" stroke="#f7f7f7"/><path d="M1114.255 108.147l44.288 36.228 37.27-151.765z" fill="#fcfcfc" stroke="#fcfcfc"/><path d="M1055.336 192.162l-5.876 173.845 154.944-30.334z" fill="#f7f7f7" stroke="#f7f7f7"/><path d="M1055.336 192.162l149.068 143.511 12.678-82.906z" fill="#f8f8f8" stroke="#f8f8f8"/><path d="M1055.336 192.162l161.746 60.605-58.539-108.392z" fill="#fafafa" stroke="#fafafa"/><path d="M1049.46 366.007l7.408 28.91 147.536-59.244z" fill="#f8f8f8" stroke="#f8f8f8"/><path d="M1056.868 394.916l73.835 133.712 67.634-64.145z" fill="#fff" stroke="#fff"/><path d="M1056.868 394.916l141.47 69.567 6.066-128.81z" fill="#fdfdfd" stroke="#fdfdfd"/><path d="M1130.703 528.628l-13.23 86.979 98.118.114z" fill="#fbfbfb" stroke="#fbfbfb"/><path d="M1130.703 528.628l84.888 87.093 14.793-47.302z" fill="#f9f9f9" stroke="#f9f9f9"/><path d="M1130.703 528.628l99.681 39.791-32.047-103.936z" fill="#f6f6f6" stroke="#f6f6f6"/><path d="M1117.472 615.607l-9.435 112.013 107.554-111.899z" fill="#fcfcfc" stroke="#fcfcfc"/><path d="M1108.037 727.62l-61.184 128.345 140.534-74.629z" fill="#fdfdfd" stroke="#fdfdfd"/><path d="M1108.037 727.62l79.35 53.716 28.204-165.615z" fill="#fcfcfc" stroke="#fcfcfc"/><path d="M1046.853 855.965l24.568 86.553 139.963-68.239z" fill="#f7f7f7" stroke="#f7f7f7"/><path d="M1046.853 855.965l164.53 18.314-23.996-92.943z" fill="#f7f7f7" stroke="#f7f7f7"/><path d="M1071.42 942.518l248.515 51.517-88.711-54.445z" fill="#fff" stroke="#fff"/><path d="M1071.42 942.518l159.804-2.928-19.84-65.31zm100.848-1195.213l66.468 114.45 83.655-58.336z" fill="#fff" stroke="#fff"/><path d="M1172.268-252.695l150.123 56.114 79.273 1.158z" fill="#fcfcfc" stroke="#fcfcfc"/><path d="M1172.268-252.695l229.396 57.272 152.24-28.268z" fill="#f8f8f8" stroke="#f8f8f8"/><path d="M1238.736-138.245L1195.813-7.39l69.154 27.359z" fill="#f6f6f6" stroke="#f6f6f6"/><path d="M1238.736-138.245l26.231 158.214 16.781-159.329z" fill="#f6f6f6" stroke="#f6f6f6"/><path d="M1238.736-138.245l43.012-1.115 40.643-57.221z" fill="#fdfdfd" stroke="#fdfdfd"/><path d="M1195.813-7.39l-37.27 151.765L1264.967 19.97z" fill="#fafafa" stroke="#fafafa"/><path d="M1158.543 144.375l58.54 108.392L1336.43 90.91z" fill="#f9f9f9" stroke="#f9f9f9"/><path d="M1158.543 144.375l177.888-53.465-71.464-70.941z" fill="#fafafa" stroke="#fafafa"/><path d="M1217.082 252.767l-12.678 82.906 103.09 27.516z" fill="#fefefe" stroke="#fefefe"/><path d="M1217.082 252.767l90.412 110.422 28.143-102.477z" fill="#f9f9f9" stroke="#f9f9f9"/><path d="M1217.082 252.767l118.555 7.945.794-169.802z" fill="#f8f8f8" stroke="#f8f8f8"/><path d="M1204.404 335.673l-6.067 128.81 109.157-101.294z" fill="#f6f6f6" stroke="#f6f6f6"/><path d="M1198.337 464.483l32.047 103.936 104.61-142.87z" fill="#fefefe" stroke="#fefefe"/><path d="M1198.337 464.483l136.658-38.933-27.501-62.361z" fill="#fefefe" stroke="#fefefe"/><path d="M1230.384 568.42l-14.793 47.301 134.672-43.991z" fill="#f7f7f7" stroke="#f7f7f7"/><path d="M1230.384 568.42l119.879 3.31-15.268-146.18z" fill="#fbfbfb" stroke="#fbfbfb"/><path d="M1215.591 615.721l-28.204 165.615 92.661-94.896z" fill="#fdfdfd" stroke="#fdfdfd"/><path d="M1215.591 615.721l64.457 70.719 70.215-114.71zm-28.204 165.615l23.997 92.943 70.588-11.017z" fill="#fdfdfd" stroke="#fdfdfd"/><path d="M1187.387 781.336l94.585 81.926 53.638-125.487z" fill="#f6f6f6" stroke="#f6f6f6"/><path d="M1187.387 781.336l148.223-43.561-55.562-51.335z" fill="#fafafa" stroke="#fafafa"/><path d="M1211.384 874.28l19.84 65.31 50.748-76.328z" fill="#fff" stroke="#fff"/><path d="M1231.224 939.59l88.71 54.445-37.962-130.773z" fill="#f6f6f6" stroke="#f6f6f6"/><path d="M1322.39-196.581l-40.642 57.221 105.88 62.034z" fill="#fbfbfb" stroke="#fbfbfb"/><path d="M1322.39-196.581l65.239 119.255 14.035-118.097z" fill="#f7f7f7" stroke="#f7f7f7"/><path d="M1281.748-139.36l-16.78 159.329 122.66-97.295z" fill="#fefefe" stroke="#fefefe"/><path d="M1264.967 19.969l71.464 70.941 41.667-55.353z" fill="#fafafa" stroke="#fafafa"/><path d="M1264.967 19.969l113.131 15.588 9.53-112.883z" fill="#fbfbfb" stroke="#fbfbfb"/><path d="M1336.431 90.91l-.794 169.802 91.187-158.597zm0 0l90.393 11.205-48.726-66.558z" fill="#f7f7f7" stroke="#f7f7f7"/><path d="M1335.637 260.712l-28.143 102.477 132.584-36.755z" fill="#fefefe" stroke="#fefefe"/><path d="M1335.637 260.712l104.441 65.722 19.16-73.472z" fill="#fefefe" stroke="#fefefe"/><path d="M1335.637 260.712l123.601-7.75-32.414-150.847z" fill="#fdfdfd" stroke="#fdfdfd"/><path d="M1307.494 363.189l27.5 62.36 105.084-99.115z" fill="#fbfbfb" stroke="#fbfbfb"/><path d="M1334.995 425.55l15.268 146.18 91.382-108.626z" fill="#fcfcfc" stroke="#fcfcfc"/><path d="M1334.995 425.55l106.65 37.554-1.567-136.67z" fill="#f7f7f7" stroke="#f7f7f7"/><path d="M1350.263 571.73l-70.215 114.71 132.648-20.914z" fill="#f6f6f6" stroke="#f6f6f6"/><path d="M1350.263 571.73l62.433 93.796 17.734-115.907z" fill="#fbfbfb" stroke="#fbfbfb"/><path d="M1350.263 571.73l80.167-22.111 11.215-86.515z" fill="#fafafa" stroke="#fafafa"/><path d="M1280.048 686.44l55.562 51.335 77.086-72.249z" fill="#fcfcfc" stroke="#fcfcfc"/><path d="M1335.61 737.775l-53.638 125.487 95.256-59.118z" fill="#fdfdfd" stroke="#fdfdfd"/><path d="M1335.61 737.775l41.618 66.369 35.468-138.618zm-53.638 125.487l37.963 130.773 92.444-132.107z" fill="#f6f6f6" stroke="#f6f6f6"/><path d="M1281.972 863.262l130.407-1.334-35.15-57.784z" fill="#fefefe" stroke="#fefefe"/><path d="M1319.935 994.035l132.081-25.388-39.637-106.719z" fill="#f6f6f6" stroke="#f6f6f6"/><path d="M1401.664-195.423L1387.63-77.326l117.05-39.513z" fill="#fff" stroke="#fff"/><path d="M1401.664-195.423l103.016 78.584 49.223-106.852z" fill="#f9f9f9" stroke="#f9f9f9"/><path d="M1387.629-77.326l-9.531 112.883 156.836 5.63z" fill="#f7f7f7" stroke="#f7f7f7"/><path d="M1387.629-77.326l147.305 118.512-30.254-158.025z" fill="#fcfcfc" stroke="#fcfcfc"/><path d="M1378.098 35.557l48.726 66.558 108.11-60.929z" fill="#fafafa" stroke="#fafafa"/><path d="M1426.824 102.115l32.414 150.847 38.923-19.708z" fill="#fcfcfc" stroke="#fcfcfc"/><path d="M1426.824 102.115l71.337 131.139 41.841-119.434zm0 0l113.178 11.705-5.068-72.634z" fill="#f9f9f9" stroke="#f9f9f9"/><path d="M1459.238 252.962l-19.16 73.472 65.99.987z" fill="#f7f7f7" stroke="#f7f7f7"/><path d="M1459.238 252.962l46.83 74.46-7.907-94.168z" fill="#fcfcfc" stroke="#fcfcfc"/><path d="M1440.078 326.434l1.567 136.67 71.717-18.906z" fill="#fafafa" stroke="#fafafa"/><path d="M1440.078 326.434l73.284 117.764-7.293-116.777z" fill="#f7f7f7" stroke="#f7f7f7"/><path d="M1441.645 463.104l-11.215 86.515 82.064-20.874z" fill="#f8f8f8" stroke="#f8f8f8"/><path d="M1441.645 463.104l70.849 65.641.868-84.547z" fill="#fdfdfd" stroke="#fdfdfd"/><path d="M1430.43 549.619l-17.734 115.907 93.71-48.939z" fill="#fbfbfb" stroke="#fbfbfb"/><path d="M1430.43 549.619l75.977 66.968 6.087-87.842zm-17.734 115.907l-35.468 138.618 139.596-19.521z" fill="#f7f7f7" stroke="#f7f7f7"/><path d="M1412.696 665.526l104.128 119.097-10.417-168.036z" fill="#fff" stroke="#fff"/><path d="M1377.228 804.144l35.151 57.784 104.445-77.305z" fill="#fbfbfb" stroke="#fbfbfb"/><path d="M1412.38 861.928l39.636 106.719 77.591-29.51z" fill="#f6f6f6" stroke="#f6f6f6"/><path d="M1412.38 861.928l117.227 77.208 38.505-42.362z" fill="#fcfcfc" stroke="#fcfcfc"/><path d="M1412.38 861.928l155.732 34.846-51.288-112.151z" fill="#fff" stroke="#fff"/><path d="M1553.903-223.691L1504.68-116.84l30.254 158.025z" fill="#fbfbfb" stroke="#fbfbfb"/><path d="M1553.903-223.691l-18.969 264.877 5.068 72.634z" fill="#f6f6f6" stroke="#f6f6f6"/><path d="M1553.903-223.691l-13.9 337.511 28.11 782.954zm-13.901 337.511l-41.84 119.434 7.907 94.167z" fill="#fdfdfd" stroke="#fdfdfd"/><path d="M1540.002 113.82l-33.933 213.601 7.293 116.777z" fill="#f7f7f7" stroke="#f7f7f7"/><path d="M1540.002 113.82l-26.64 330.378 54.75 452.576z" fill="#fafafa" stroke="#fafafa"/><path d="M1513.362 444.198l-.868 84.547 55.618 368.029z" fill="#f9f9f9" stroke="#f9f9f9"/><path d="M1512.494 528.745l-6.087 87.842 61.705 280.187z" fill="#fdfdfd" stroke="#fdfdfd"/><path d="M1506.407 616.587l10.417 168.036 51.288 112.15z" fill="#f9f9f9" stroke="#f9f9f9"/></g></svg>