<svg xmlns="http://www.w3.org/2000/svg" width="1400" height="800"><g class="triangles"><path class="primary" d="M-210.472-197.094l-41.889 425.817 53.061-369.472z" fill="#fbfbfb" stroke="#fbfbfb"/><path class="primary" d="M-210.472-197.094l11.172 56.345 67.647-8.486z" fill="#fdfdfd" stroke="#fdfdfd"/><path class="primary" d="M-210.472-197.094l78.819 47.859 37.16-92.973z" fill="#fdfdfd" stroke="#fdfdfd"/><path d="M-199.3-140.749l-53.06 369.472 59.811-203.566z" fill="#fff" stroke="#fff"/><path d="M-199.3-140.749l6.751 165.906 98.697-65.58z" fill="#fefefe" stroke="#fefefe"/><path d="M-199.3-140.749L-93.852-40.423l-37.801-108.812z" fill="#f7f7f7" stroke="#f7f7f7"/><path d="M-192.549 25.157l-59.812 203.566 64.433-76.67z" fill="#f8f8f8" stroke="#f8f8f8"/><path d="M-192.549 25.157l4.621 126.897 96.918-36.026z" fill="#f8f8f8" stroke="#f8f8f8"/><path d="M-192.549 25.157l101.54 90.871-2.843-156.451z" fill="#f6f6f6" stroke="#f6f6f6"/><path d="M-187.928 152.054l-64.433 76.67 111.934-28.17z" fill="#f9f9f9" stroke="#f9f9f9"/><path d="M-187.928 152.054l47.5 48.5 49.418-84.526zm-64.432 76.669l-5.67 63.243 109.727 25.713z" fill="#f9f9f9" stroke="#f9f9f9"/><path d="M-252.36 228.723l104.057 88.956 7.876-117.125z" fill="#f7f7f7" stroke="#f7f7f7"/><path d="M-258.03 291.966l-1.101 124.695 110.828-98.982z" fill="#fcfcfc" stroke="#fcfcfc"/><path d="M-259.131 416.661l46.651 605.69-13.47-288.685z" fill="#f7f7f7" stroke="#f7f7f7"/><path d="M-259.131 416.661l33.182 317.005 5.71-107.65z" fill="#fcfcfc" stroke="#fcfcfc"/><path d="M-259.131 416.661l38.893 209.356 2.104-122.854z" fill="#fdfdfd" stroke="#fdfdfd"/><path d="M-259.131 416.661l40.997 86.502 68.098 9.302z" fill="#f8f8f8" stroke="#f8f8f8"/><path d="M-259.131 416.661l109.095 95.804 67.89-105.841z" fill="#fcfcfc" stroke="#fcfcfc"/><path d="M-259.131 416.661l176.985-10.037-66.157-88.945z" fill="#f9f9f9" stroke="#f9f9f9"/><path d="M-218.134 503.163l-2.104 122.854 70.202-113.552z" fill="#fbfbfb" stroke="#fbfbfb"/><path d="M-220.238 626.017l-5.711 107.65 132.412-106.508z" fill="#fefefe" stroke="#fefefe"/><path d="M-220.238 626.017l126.7 1.142-56.498-114.694zm-5.712 107.649l13.47 288.686 5.912-168.768z" fill="#fff" stroke="#fff"/><path d="M-225.95 733.666l19.382 119.918 56.17-64.493z" fill="#fcfcfc" stroke="#fcfcfc"/><path d="M-225.95 733.666l75.552 55.425 56.86-161.932z" fill="#fefefe" stroke="#fefefe"/><path d="M-206.568 853.584l-5.912 168.768 145.54-24.002z" fill="#f8f8f8" stroke="#f8f8f8"/><path d="M-206.568 853.584L-66.94 998.35l-23.04-153.574z" fill="#fcfcfc" stroke="#fcfcfc"/><path d="M-206.568 853.584l116.587-8.808-60.417-55.685z" fill="#fdfdfd" stroke="#fdfdfd"/><path d="M-212.48 1022.352l1723.279 1.072-878.95-6.308z" fill="#fefefe" stroke="#fefefe"/><path d="M-212.48 1022.352l844.329-5.236-159.145-3.876z" fill="#fbfbfb" stroke="#fbfbfb"/><path d="M-212.48 1022.352l685.184-9.112-243.319-14.278z" fill="#f8f8f8" stroke="#f8f8f8"/><path d="M-212.48 1022.352l441.865-23.39-215.672-1.554z" fill="#f8f8f8" stroke="#f8f8f8"/><path d="M-212.48 1022.352l226.193-24.944-80.653.942z" fill="#fbfbfb" stroke="#fbfbfb"/><path d="M-94.493-242.208l-37.16 92.973 149.197-31.18z" fill="#fff" stroke="#fff"/><path d="M-94.493-242.208l112.037 61.793 100.088-35.081z" fill="#fdfdfd" stroke="#fdfdfd"/><path d="M-94.493-242.208l212.125 26.712 135.044-44.02z" fill="#f8f8f8" stroke="#f8f8f8"/><path d="M-131.653-149.235l37.801 108.812 115.23-110.2z" fill="#f9f9f9" stroke="#f9f9f9"/><path d="M-131.653-149.235l153.031-1.388-3.834-29.792z" fill="#fefefe" stroke="#fefefe"/><path d="M-93.852-40.423l2.842 156.451L41.988 4.274z" fill="#f8f8f8" stroke="#f8f8f8"/><path d="M-93.852-40.423L41.988 4.274l-20.61-154.897z" fill="#f6f6f6" stroke="#f6f6f6"/><path d="M-91.01 116.028l-49.417 84.526 160.554 28.458z" fill="#fff" stroke="#fff"/><path d="M-91.01 116.028L20.127 229.012 41.183 84.596z" fill="#fdfdfd" stroke="#fdfdfd"/><path d="M-91.01 116.028L41.183 84.596l.805-80.322z" fill="#fff" stroke="#fff"/><path d="M-140.427 200.554l-7.876 117.125 168.43-88.667z" fill="#f6f6f6" stroke="#f6f6f6"/><path d="M-148.303 317.679l66.157 88.945 110.082-43.392z" fill="#fefefe" stroke="#fefefe"/><path d="M-148.303 317.679l176.239 45.553-7.809-134.22z" fill="#f9f9f9" stroke="#f9f9f9"/><path d="M-82.146 406.624l-67.89 105.84L.629 445.1z" fill="#fafafa" stroke="#fafafa"/><path d="M-82.146 406.624L.629 445.099l27.307-81.867z" fill="#fff" stroke="#fff"/><path d="M-150.036 512.465l56.499 114.694 74.255-58.08z" fill="#fbfbfb" stroke="#fbfbfb"/><path d="M-150.036 512.465l130.754 56.615L.628 445.099z" fill="#fff" stroke="#fff"/><path d="M-93.537 627.159l-56.86 161.932L11.106 773.16z" fill="#f8f8f8" stroke="#f8f8f8"/><path d="M-93.537 627.159l104.644 146L-.383 633.66z" fill="#f9f9f9" stroke="#f9f9f9"/><path d="M-93.537 627.159l93.153 6.501-18.898-64.58z" fill="#f6f6f6" stroke="#f6f6f6"/><path d="M-150.398 789.091l60.417 55.685 101.088-71.617zm60.418 55.685l23.04 153.574 33.927-137.74z" fill="#fbfbfb" stroke="#fbfbfb"/><path d="M-89.98 844.776l56.967 15.835 44.12-87.452z" fill="#f6f6f6" stroke="#f6f6f6"/><path d="M-66.94 998.35l80.653-.942-46.726-136.797zM17.544-180.415l3.834 29.792 96.254-64.873z" fill="#fafafa" stroke="#fafafa"/><path d="M21.378-150.623L41.988 4.274l96.693-130.319z" fill="#fdfdfd" stroke="#fdfdfd"/><path d="M21.378-150.623l117.303 24.578-21.049-89.451z" fill="#fcfcfc" stroke="#fcfcfc"/><path d="M41.988 4.274l-.805 80.322 79.924 21.863z" fill="#fff" stroke="#fff"/><path d="M41.988 4.274l79.119 102.185 24.67-113.027zm0 0L145.776-6.568l-7.095-119.477z" fill="#f7f7f7" stroke="#f7f7f7"/><path d="M41.183 84.596L20.127 229.012l100.98-122.553z" fill="#f8f8f8" stroke="#f8f8f8"/><path d="M20.127 229.012l7.809 134.22 40.068-38.739z" fill="#f9f9f9" stroke="#f9f9f9"/><path d="M20.127 229.012l47.877 95.481 10.64-65.217z" fill="#fff" stroke="#fff"/><path d="M20.127 229.012l58.517 30.264 42.463-152.817z" fill="#f7f7f7" stroke="#f7f7f7"/><path d="M27.936 363.232L.629 445.099l83.694-18.233z" fill="#fdfdfd" stroke="#fdfdfd"/><path d="M27.936 363.232l56.387 63.634-16.32-102.373z" fill="#f7f7f7" stroke="#f7f7f7"/><path d="M.629 445.099l-19.91 123.98 169.617-27.227z" fill="#fcfcfc" stroke="#fcfcfc"/><path d="M.629 445.099l149.707 96.753-66.013-114.986zM-19.282 569.08l18.898 64.58 150.72-91.808z" fill="#fefefe" stroke="#fefefe"/><path d="M-.384 633.66l11.49 139.5 66.61-87.405z" fill="#f8f8f8" stroke="#f8f8f8"/><path d="M-.384 633.66l78.1 52.095 72.62-143.903z" fill="#fefefe" stroke="#fefefe"/><path d="M11.107 773.16l-44.12 87.45 169.957 3.12z" fill="#fcfcfc" stroke="#fcfcfc"/><path d="M11.107 773.16l125.837 90.57L87.1 766.435z" fill="#f9f9f9" stroke="#f9f9f9"/><path d="M11.107 773.16l75.993-6.725-9.384-80.68z" fill="#f6f6f6" stroke="#f6f6f6"/><path d="M-33.013 860.61l46.726 136.798 85.697-7.61z" fill="#f7f7f7" stroke="#f7f7f7"/><path d="M-33.013 860.61L99.41 989.798l37.534-126.067z" fill="#f8f8f8" stroke="#f8f8f8"/><path d="M13.713 997.408l215.672 1.554-129.975-9.165z" fill="#fff" stroke="#fff"/><path d="M117.632-215.496l21.05 89.451 113.994-133.472z" fill="#f8f8f8" stroke="#f8f8f8"/><path d="M138.681-126.045l7.095 119.477 108.107-59.627z" fill="#f7f7f7" stroke="#f7f7f7"/><path d="M138.681-126.045l115.202 59.85L290.08-184.12z" fill="#fcfcfc" stroke="#fcfcfc"/><path d="M138.681-126.045L290.08-184.12l-37.404-75.397z" fill="#fdfdfd" stroke="#fdfdfd"/><path d="M145.776-6.568l-24.67 113.027 102.096-6.28z" fill="#fff" stroke="#fff"/><path d="M145.776-6.568l77.426 106.747 7.322-113.137z" fill="#f9f9f9" stroke="#f9f9f9"/><path d="M145.776-6.568l84.748-6.39 23.359-53.237z" fill="#fbfbfb" stroke="#fbfbfb"/><path d="M121.107 106.46L78.644 259.275l171.29 1.998z" fill="#f6f6f6" stroke="#f6f6f6"/><path d="M121.107 106.46l128.827 154.814-26.732-161.095z" fill="#fdfdfd" stroke="#fdfdfd"/><path d="M78.644 259.276l-10.64 65.217 142.804 38.833z" fill="#f6f6f6" stroke="#f6f6f6"/><path d="M78.644 259.276l132.164 104.05 39.126-102.052z" fill="#f7f7f7" stroke="#f7f7f7"/><path d="M68.004 324.493l16.32 102.373 126.484-63.54z" fill="#fdfdfd" stroke="#fdfdfd"/><path d="M84.323 426.866l66.013 114.986 58.718-106.98z" fill="#f8f8f8" stroke="#f8f8f8"/><path d="M84.323 426.866l124.731 8.006 1.754-71.546z" fill="#f7f7f7" stroke="#f7f7f7"/><path d="M150.336 541.852l-72.62 143.903 119.893-111.72z" fill="#fcfcfc" stroke="#fcfcfc"/><path d="M150.336 541.852l47.273 32.183 11.445-139.163z" fill="#fbfbfb" stroke="#fbfbfb"/><path d="M77.716 685.755l9.384 80.68 132.548-111.649z" fill="#fcfcfc" stroke="#fcfcfc"/><path d="M77.716 685.755l141.932-30.969-22.04-80.75z" fill="#fdfdfd" stroke="#fdfdfd"/><path d="M87.1 766.435l49.844 97.295 100.392-61.68z" fill="#fbfbfb" stroke="#fbfbfb"/><path d="M87.1 766.435l150.236 35.616-17.688-147.265z" fill="#f9f9f9" stroke="#f9f9f9"/><path d="M136.944 863.73L99.41 989.797l129.975 9.165z" fill="#fbfbfb" stroke="#fbfbfb"/><path d="M136.944 863.73l92.441 135.232-11.034-128.931z" fill="#f8f8f8" stroke="#f8f8f8"/><path d="M136.944 863.73l81.407 6.3 18.985-67.98z" fill="#fdfdfd" stroke="#fdfdfd"/><path d="M252.676-259.517l37.404 75.397 110.608-60.153z" fill="#fff" stroke="#fff"/><path d="M252.676-259.517l148.012 15.244 172.353-13.693z" fill="#f9f9f9" stroke="#f9f9f9"/><path d="M252.676-259.517l320.365 1.551 834.98 3.648z" fill="#fefefe" stroke="#fefefe"/><path d="M253.883-66.195l-23.359 53.237 92.638 47.027z" fill="#f7f7f7" stroke="#f7f7f7"/><path d="M253.883-66.195L323.162 34.07l77.837-132.83z" fill="#f6f6f6" stroke="#f6f6f6"/><path d="M253.883-66.195L400.999-98.76l-43.931-51.31z" fill="#fbfbfb" stroke="#fbfbfb"/><path d="M253.883-66.195l103.185-83.875-66.988-34.05z" fill="#fff" stroke="#fff"/><path d="M230.524-12.958l-7.322 113.137 99.96-66.11z" fill="#fafafa" stroke="#fafafa"/><path d="M223.202 100.179l26.732 161.095 98.988-141.857z" fill="#f8f8f8" stroke="#f8f8f8"/><path d="M223.202 100.179l125.72 19.238-25.76-85.348z" fill="#f9f9f9" stroke="#f9f9f9"/><path d="M249.934 261.274l-39.126 102.052 119.957-45.764z" fill="#fcfcfc" stroke="#fcfcfc"/><path d="M249.934 261.274l80.83 56.288 26.817-87.826z" fill="#f8f8f8" stroke="#f8f8f8"/><path d="M249.934 261.274l107.647-31.538-8.66-110.319z" fill="#fdfdfd" stroke="#fdfdfd"/><path d="M210.808 363.326l-1.754 71.546 90.582-32.272z" fill="#f6f6f6" stroke="#f6f6f6"/><path d="M210.808 363.326l88.828 39.274 31.129-85.038z" fill="#fafafa" stroke="#fafafa"/><path d="M209.054 434.872L197.61 574.035l103.128-47.503z" fill="#fff" stroke="#fff"/><path d="M209.054 434.872l91.683 91.66-1.1-123.932z" fill="#fafafa" stroke="#fafafa"/><path d="M197.609 574.035l22.039 80.751 83.888-19.842z" fill="#fcfcfc" stroke="#fcfcfc"/><path d="M197.609 574.035l105.927 60.91-2.799-108.413z" fill="#fafafa" stroke="#fafafa"/><path d="M219.648 654.786l17.688 147.265 54.02-36.85z" fill="#fcfcfc" stroke="#fcfcfc"/><path d="M219.648 654.786L291.357 765.2l12.179-130.256z" fill="#fafafa" stroke="#fafafa"/><path d="M237.336 802.05l-18.985 67.98 69.324-32.135z" fill="#fefefe" stroke="#fefefe"/><path d="M237.336 802.05l50.34 35.845 3.68-72.695z" fill="#fcfcfc" stroke="#fcfcfc"/><path d="M218.351 870.03l11.034 128.932L351.66 965.4z" fill="#f8f8f8" stroke="#f8f8f8"/><path d="M218.351 870.03L351.66 965.4l-63.985-127.505z" fill="#fefefe" stroke="#fefefe"/><path d="M229.385 998.962l243.319 14.278L351.66 965.4z" fill="#fdfdfd" stroke="#fdfdfd"/><path d="M290.08-184.12l66.988 34.05 43.62-94.203z" fill="#f6f6f6" stroke="#f6f6f6"/><path d="M357.068-150.07l43.93 51.31-.31-145.513z" fill="#fcfcfc" stroke="#fcfcfc"/><path d="M323.162 34.07l25.76 85.347 49.941-19.47z" fill="#fff" stroke="#fff"/><path d="M323.162 34.07l75.701 65.877 38.778-77.425z" fill="#f9f9f9" stroke="#f9f9f9"/><path d="M323.162 34.07l114.48-11.548L400.998-98.76z" fill="#f8f8f8" stroke="#f8f8f8"/><path d="M348.922 119.417l8.66 110.319 101.776-45.868z" fill="#fbfbfb" stroke="#fbfbfb"/><path d="M348.922 119.417l110.436 64.45-60.495-83.92z" fill="#f6f6f6" stroke="#f6f6f6"/><path d="M357.581 229.736l-26.816 87.826 125.915-12.576z" fill="#f8f8f8" stroke="#f8f8f8"/><path d="M357.581 229.736l99.099 75.25 2.678-121.118z" fill="#f8f8f8" stroke="#f8f8f8"/><path d="M330.765 317.562L299.636 402.6l158.531 33.71z" fill="#fdfdfd" stroke="#fdfdfd"/><path d="M330.765 317.562l127.402 118.749-1.487-131.325z" fill="#fdfdfd" stroke="#fdfdfd"/><path d="M299.636 402.6l1.101 123.932 157.43-90.221z" fill="#fafafa" stroke="#fafafa"/><path d="M300.737 526.532l2.799 108.412 130.09-97.59z" fill="#fefefe" stroke="#fefefe"/><path d="M300.737 526.532l132.888 10.821 24.542-101.042z" fill="#f6f6f6" stroke="#f6f6f6"/><path d="M303.536 634.944L291.356 765.2l123.28-73.827z" fill="#f9f9f9" stroke="#f9f9f9"/><path d="M303.536 634.944l111.1 56.43 18.99-154.02z" fill="#f8f8f8" stroke="#f8f8f8"/><path d="M291.357 765.2l-3.682 72.695 124.496 4.597z" fill="#f9f9f9" stroke="#f9f9f9"/><path d="M291.357 765.2l120.814 77.292 27.006-102.632z" fill="#f9f9f9" stroke="#f9f9f9"/><path d="M291.357 765.2l147.82-25.34-24.54-48.487z" fill="#fff" stroke="#fff"/><path d="M287.675 837.895L351.66 965.4l60.51-122.908z" fill="#f9f9f9" stroke="#f9f9f9"/><path d="M351.66 965.4l121.044 47.84 44.678-114.1z" fill="#fdfdfd" stroke="#fdfdfd"/><path d="M351.66 965.4l165.722-66.26-105.211-56.648z" fill="#fff" stroke="#fff"/><path d="M400.688-244.273l.31 145.513 149.78 12.258z" fill="#f6f6f6" stroke="#f6f6f6"/><path d="M400.688-244.273l150.09 157.77 22.263-171.463z" fill="#fafafa" stroke="#fafafa"/><path d="M400.999-98.76L437.64 22.522l104.24-56.425z" fill="#fff" stroke="#fff"/><path d="M400.999-98.76L541.88-33.903l8.896-52.6z" fill="#f7f7f7" stroke="#f7f7f7"/><path d="M437.641 22.522l-38.778 77.425 119.324 8.07z" fill="#f8f8f8" stroke="#f8f8f8"/><path d="M437.641 22.522l80.546 85.495 23.694-141.92z" fill="#fafafa" stroke="#fafafa"/><path d="M398.863 99.947l60.495 83.92 58.83-75.85z" fill="#fbfbfb" stroke="#fbfbfb"/><path d="M459.358 183.868l-2.678 121.118 105.47-102.813z" fill="#f6f6f6" stroke="#f6f6f6"/><path d="M459.358 183.868l102.793 18.305-43.964-94.156z" fill="#fbfbfb" stroke="#fbfbfb"/><path d="M456.68 304.986l1.487 131.325 66.186-82.772z" fill="#fdfdfd" stroke="#fdfdfd"/><path d="M456.68 304.986l67.673 48.553 37.798-151.366z" fill="#fefefe" stroke="#fefefe"/><path d="M458.167 436.31l-24.542 101.043 96.949-17.175z" fill="#f6f6f6" stroke="#f6f6f6"/><path d="M458.167 436.31l72.407 83.868 55.225-114.09z" fill="#fbfbfb" stroke="#fbfbfb"/><path d="M458.167 436.31l127.632-30.222-61.446-52.549z" fill="#f6f6f6" stroke="#f6f6f6"/><path d="M433.625 537.353l-18.988 154.02 145.379-15.353z" fill="#fff" stroke="#fff"/><path d="M433.625 537.353l126.39 138.667-29.441-155.842z" fill="#f9f9f9" stroke="#f9f9f9"/><path d="M414.637 691.373l24.54 48.487 120.839-63.84z" fill="#f8f8f8" stroke="#f8f8f8"/><path d="M439.177 739.86l-27.006 102.632 126.896-81.219z" fill="#f6f6f6" stroke="#f6f6f6"/><path d="M439.177 739.86l99.89 21.413 20.949-85.253z" fill="#f8f8f8" stroke="#f8f8f8"/><path d="M412.17 842.492l105.212 56.648 21.685-137.867z" fill="#fff" stroke="#fff"/><path d="M472.704 1013.24l159.145 3.876-129.723-15.525z" fill="#f8f8f8" stroke="#f8f8f8"/><path d="M472.704 1013.24l29.422-11.649 15.256-102.45z" fill="#fbfbfb" stroke="#fbfbfb"/><path d="M573.041-257.966L550.777-86.502l103.76-25.051z" fill="#fefefe" stroke="#fefefe"/><path d="M573.041-257.966l81.495 146.413 42.667-78.91z" fill="#fbfbfb" stroke="#fbfbfb"/><path d="M573.041-257.966l124.162 67.504 50.775-65.946z" fill="#fefefe" stroke="#fefefe"/><path d="M573.041-257.966l174.937 1.558 660.044 2.09z" fill="#fefefe" stroke="#fefefe"/><path d="M550.777-86.502l-8.896 52.599L645.194 7.35z" fill="#f7f7f7" stroke="#f7f7f7"/><path d="M550.777-86.502L645.194 7.35l9.342-118.903z" fill="#fcfcfc" stroke="#fcfcfc"/><path d="M541.88-33.903l-23.693 141.92L645.194 7.35z" fill="#fdfdfd" stroke="#fdfdfd"/><path d="M518.187 108.017l43.964 94.156 112.813-94.643z" fill="#f6f6f6" stroke="#f6f6f6"/><path d="M518.187 108.017l156.777-.487-29.77-100.18z" fill="#fbfbfb" stroke="#fbfbfb"/><path d="M562.15 202.173l-37.797 151.366 125.85-46.85z" fill="#fafafa" stroke="#fafafa"/><path d="M562.15 202.173l88.054 104.517 23.45-54.177z" fill="#fefefe" stroke="#fefefe"/><path d="M562.15 202.173l111.503 50.34 1.31-144.983z" fill="#f7f7f7" stroke="#f7f7f7"/><path d="M524.353 353.54l61.446 52.548 64.405-99.398z" fill="#fff" stroke="#fff"/><path d="M585.8 406.088l-55.226 114.09 96.907 19.5z" fill="#f8f8f8" stroke="#f8f8f8"/><path d="M585.8 406.088l41.68 133.59 56.304-103.126z" fill="#fefefe" stroke="#fefefe"/><path d="M585.8 406.088l97.984 30.464-33.58-129.862z" fill="#fff" stroke="#fff"/><path d="M530.574 520.178l29.442 155.842 67.465-136.342z" fill="#fefefe" stroke="#fefefe"/><path d="M560.016 676.02l-20.95 85.253 72.294-22.896z" fill="#fafafa" stroke="#fafafa"/><path d="M560.016 676.02l51.344 62.357 80.323-77.065z" fill="#f9f9f9" stroke="#f9f9f9"/><path d="M560.016 676.02l131.667-14.708-64.202-121.634z" fill="#f7f7f7" stroke="#f7f7f7"/><path d="M539.067 761.273L517.382 899.14l163.416-60.396z" fill="#f9f9f9" stroke="#f9f9f9"/><path d="M539.067 761.273l141.73 77.47-69.437-100.366z" fill="#f8f8f8" stroke="#f8f8f8"/><path d="M517.382 899.14l-15.256 102.451 129.723 15.525z" fill="#fcfcfc" stroke="#fcfcfc"/><path d="M517.382 899.14l114.467 117.976 48.949-178.372z" fill="#fcfcfc" stroke="#fcfcfc"/><path d="M697.203-190.462l-42.667 78.909 121.98-4.624z" fill="#fdfdfd" stroke="#fdfdfd"/><path d="M697.203-190.462l79.313 74.285 57.317-76.72z" fill="#fafafa" stroke="#fafafa"/><path d="M697.203-190.462l136.63-2.435-85.855-63.511z" fill="#f8f8f8" stroke="#f8f8f8"/><path d="M654.536-111.553L645.194 7.35 786.267-8.884z" fill="#fafafa" stroke="#fafafa"/><path d="M654.536-111.553l131.73 102.67-9.75-107.294z" fill="#f6f6f6" stroke="#f6f6f6"/><path d="M645.194 7.35l29.77 100.18L786.267-8.884z" fill="#fdfdfd" stroke="#fdfdfd"/><path d="M674.964 107.53l-1.31 144.983 50.506 3.595z" fill="#fefefe" stroke="#fefefe"/><path d="M674.964 107.53l49.196 148.578 46.298-138.59z" fill="#fff" stroke="#fff"/><path d="M674.964 107.53l95.494 9.989L786.267-8.884z" fill="#fafafa" stroke="#fafafa"/><path d="M673.653 252.513l-23.45 54.177 73.957-50.582z" fill="#f8f8f8" stroke="#f8f8f8"/><path d="M650.204 306.69l33.58 129.862 92.862-31.99z" fill="#fafafa" stroke="#fafafa"/><path d="M650.204 306.69l126.442 97.872 29.471-66.656z" fill="#f8f8f8" stroke="#f8f8f8"/><path d="M650.204 306.69l155.913 31.216-81.957-81.798z" fill="#fbfbfb" stroke="#fbfbfb"/><path d="M683.784 436.552l-56.303 103.126 125.88 17.102z" fill="#f7f7f7" stroke="#f7f7f7"/><path d="M683.784 436.552L753.36 556.78l23.286-152.218z" fill="#fbfbfb" stroke="#fbfbfb"/><path d="M627.48 539.678l64.203 121.634L753.36 556.78z" fill="#fefefe" stroke="#fefefe"/><path d="M691.683 661.312l-80.323 77.065 116.498 62.103z" fill="#f7f7f7" stroke="#f7f7f7"/><path d="M691.683 661.312l36.175 139.168 39.336-153.307z" fill="#f6f6f6" stroke="#f6f6f6"/><path d="M691.683 661.312l75.511-14.139-13.834-90.393zm-80.323 77.065l69.438 100.367 47.06-38.264z" fill="#fefefe" stroke="#fefefe"/><path d="M680.798 838.744l-48.95 178.372 116.494-111.5z" fill="#fff" stroke="#fff"/><path d="M680.798 838.744l67.544 66.873-20.484-105.137z" fill="#fefefe" stroke="#fefefe"/><path d="M631.849 1017.116l878.95 6.308-779.787-12.78z" fill="#f6f6f6" stroke="#f6f6f6"/><path d="M631.849 1017.116l99.163-6.473 17.33-105.026z" fill="#fcfcfc" stroke="#fcfcfc"/><path d="M747.978-256.408l85.855 63.511 143.349-30.93z" fill="#fbfbfb" stroke="#fbfbfb"/><path d="M747.978-256.408l229.204 32.581 120.625-5.207z" fill="#fcfcfc" stroke="#fcfcfc"/><path d="M747.978-256.408l349.83 27.374 310.214-25.284z" fill="#f7f7f7" stroke="#f7f7f7"/><path d="M776.516-116.177l9.75 107.293 109.077-1.158z" fill="#f6f6f6" stroke="#f6f6f6"/><path d="M776.516-116.177L895.343-10.042l-11.135-131.464z" fill="#fbfbfb" stroke="#fbfbfb"/><path d="M776.516-116.177l107.692-25.329-50.375-51.39zm9.751 107.293L770.458 117.52l71.201 8.619z" fill="#f9f9f9" stroke="#f9f9f9"/><path d="M786.267-8.884l55.392 135.022 53.684-136.18z" fill="#f6f6f6" stroke="#f6f6f6"/><path d="M770.458 117.519l-46.298 138.59 149.283-62.807z" fill="#f7f7f7" stroke="#f7f7f7"/><path d="M770.458 117.519l102.985 75.783-31.784-67.164z" fill="#f8f8f8" stroke="#f8f8f8"/><path d="M724.16 256.108l81.957 81.798 67.326-144.604z" fill="#f6f6f6" stroke="#f6f6f6"/><path d="M806.117 337.906l-29.47 66.656 84.242.77z" fill="#f7f7f7" stroke="#f7f7f7"/><path d="M806.117 337.906l54.772 67.426-9.918-75.956z" fill="#fdfdfd" stroke="#fdfdfd"/><path d="M806.117 337.906l44.854-8.53 22.472-136.074z" fill="#fefefe" stroke="#fefefe"/><path d="M776.646 404.562L753.36 556.78l137.935-44.745z" fill="#f7f7f7" stroke="#f7f7f7"/><path d="M776.646 404.562l114.65 107.473-30.407-106.703z" fill="#f9f9f9" stroke="#f9f9f9"/><path d="M753.36 556.78l13.834 90.393 141.738-10.66z" fill="#f6f6f6" stroke="#f6f6f6"/><path d="M753.36 556.78l155.572 79.733-17.637-124.478z" fill="#fcfcfc" stroke="#fcfcfc"/><path d="M767.194 647.173L727.858 800.48l147.245-65.394z" fill="#fdfdfd" stroke="#fdfdfd"/><path d="M767.194 647.173l107.909 87.913 33.83-98.573z" fill="#fafafa" stroke="#fafafa"/><path d="M727.858 800.48l20.484 105.137 121.74-65.598z" fill="#fcfcfc" stroke="#fcfcfc"/><path d="M727.858 800.48l142.224 39.54 5.02-104.934z" fill="#fbfbfb" stroke="#fbfbfb"/><path d="M748.342 905.617l-17.33 105.026 181.24-49.705z" fill="#fff" stroke="#fff"/><path d="M748.342 905.617l163.91 55.321-42.17-120.919z" fill="#fefefe" stroke="#fefefe"/><path d="M731.012 1010.643l779.787 12.78-464.157-32.4z" fill="#f8f8f8" stroke="#f8f8f8"/><path d="M731.012 1010.643l315.63-19.62-33.435-8.583z" fill="#fafafa" stroke="#fafafa"/><path d="M731.012 1010.643l282.195-28.203-100.954-21.502zm102.821-1203.54l50.375 51.391 92.974-82.32zm50.375 51.391l11.135 131.464L970.95-68.85z" fill="#fff" stroke="#fff"/><path d="M884.208-141.506l86.74 72.656 6.234-154.977z" fill="#f9f9f9" stroke="#f9f9f9"/><path d="M895.343-10.042l-53.684 136.18 180.835-60.143z" fill="#fff" stroke="#fff"/><path d="M895.343-10.042l127.151 76.037L1008.44 6.7z" fill="#f6f6f6" stroke="#f6f6f6"/><path d="M895.343-10.042L1008.44 6.7l-37.491-75.55z" fill="#fdfdfd" stroke="#fdfdfd"/><path d="M841.66 126.138l31.783 67.164 122.826 1.04zm0 0l154.61 68.204 26.224-128.347z" fill="#f7f7f7" stroke="#f7f7f7"/><path d="M873.443 193.302l-22.472 136.074 94.685-29.306z" fill="#fdfdfd" stroke="#fdfdfd"/><path d="M873.443 193.302l72.213 106.768 50.613-105.728z" fill="#fcfcfc" stroke="#fcfcfc"/><path d="M850.971 329.376l9.918 75.956 84.767-105.262z" fill="#f7f7f7" stroke="#f7f7f7"/><path d="M860.889 405.332l30.406 106.703 102.839-55.526z" fill="#fcfcfc" stroke="#fcfcfc"/><path d="M860.889 405.332l133.245 51.177-48.478-156.44z" fill="#fff" stroke="#fff"/><path d="M891.295 512.035l17.637 124.478 58.278-110.26z" fill="#fcfcfc" stroke="#fcfcfc"/><path d="M891.295 512.035l75.915 14.218 26.924-69.744z" fill="#fdfdfd" stroke="#fdfdfd"/><path d="M908.932 636.513l-33.83 98.573 74.954-64.127z" fill="#f9f9f9" stroke="#f9f9f9"/><path d="M908.932 636.513l41.124 34.446 17.154-144.706z" fill="#f8f8f8" stroke="#f8f8f8"/><path d="M875.103 735.086l-5.021 104.933 114.657-84.887z" fill="#f9f9f9" stroke="#f9f9f9"/><path d="M875.103 735.086l109.636 20.046-34.683-84.173z" fill="#f7f7f7" stroke="#f7f7f7"/><path d="M870.082 840.02l42.17 120.918 58.257-55.087z" fill="#fbfbfb" stroke="#fbfbfb"/><path d="M870.082 840.02l100.427 65.831 14.23-150.719z" fill="#f6f6f6" stroke="#f6f6f6"/><path d="M912.253 960.938l100.954 21.502-42.698-76.589z" fill="#fdfdfd" stroke="#fdfdfd"/><path d="M977.182-223.827L970.949-68.85l157.921-46.378z" fill="#fefefe" stroke="#fefefe"/><path d="M977.182-223.827l151.688 108.599-31.063-113.806z" fill="#fcfcfc" stroke="#fcfcfc"/><path d="M970.949-68.85L1008.44 6.7l93.624-10.483z" fill="#fbfbfb" stroke="#fbfbfb"/><path d="M970.949-68.85l131.115 65.068 26.806-111.446z" fill="#fdfdfd" stroke="#fdfdfd"/><path d="M1008.44 6.701l14.054 59.294 79.57-69.777z" fill="#f6f6f6" stroke="#f6f6f6"/><path d="M1022.494 65.995l-26.225 128.347 77.491 14.841z" fill="#fff" stroke="#fff"/><path d="M1022.494 65.995l51.266 143.188 52.26-130.573z" fill="#fdfdfd" stroke="#fdfdfd"/><path d="M1022.494 65.995l103.527 12.615-23.957-82.392z" fill="#fcfcfc" stroke="#fcfcfc"/><path d="M996.27 194.342L945.655 300.07l128.104-90.887zM945.656 300.07l48.478 156.44 133.409-143.402z" fill="#fff" stroke="#fff"/><path d="M945.656 300.07l181.887 13.038-53.783-103.925z" fill="#fefefe" stroke="#fefefe"/><path d="M994.134 456.51l-26.924 69.743 91.336-12.91z" fill="#fcfcfc" stroke="#fcfcfc"/><path d="M994.134 456.51l64.412 56.834 51.91-78.84z" fill="#fdfdfd" stroke="#fdfdfd"/><path d="M994.134 456.51l116.323-22.005 17.086-121.397z" fill="#f7f7f7" stroke="#f7f7f7"/><path d="M967.21 526.253l-17.154 144.706 108.49-157.615z" fill="#fdfdfd" stroke="#fdfdfd"/><path d="M950.056 670.959l34.683 84.173 147.07-97.232z" fill="#fbfbfb" stroke="#fbfbfb"/><path d="M950.056 670.959l181.753-13.059-73.263-144.556z" fill="#fefefe" stroke="#fefefe"/><path d="M984.739 755.132l-14.23 150.72 138.47 1.09z" fill="#f7f7f7" stroke="#f7f7f7"/><path d="M984.739 755.132l124.24 151.81 21.424-184.904z" fill="#fafafa" stroke="#fafafa"/><path d="M984.739 755.132l145.664-33.094 1.406-64.138z" fill="#fdfdfd" stroke="#fdfdfd"/><path d="M970.51 905.851l42.697 76.589 95.772-75.498z" fill="#fafafa" stroke="#fafafa"/><path d="M1013.207 982.44l33.435 8.583 62.337-84.08z" fill="#fff" stroke="#fff"/><path d="M1097.807-229.034l31.063 113.806 107.715-91.727z" fill="#fcfcfc" stroke="#fcfcfc"/><path d="M1097.807-229.034l138.778 22.08 171.437-47.364z" fill="#f7f7f7" stroke="#f7f7f7"/><path d="M1128.87-115.228L1102.064-3.782l101.06-71.192z" fill="#fafafa" stroke="#fafafa"/><path d="M1128.87-115.228l74.255 40.254 33.46-131.98z" fill="#fdfdfd" stroke="#fdfdfd"/><path d="M1102.064-3.782l23.957 82.392 65.985-88.848z" fill="#f7f7f7" stroke="#f7f7f7"/><path d="M1102.064-3.782l89.942-6.456 11.119-64.736z" fill="#f8f8f8" stroke="#f8f8f8"/><path d="M1126.02 78.61l-52.26 130.573 143.711-78.245z" fill="#fefefe" stroke="#fefefe"/><path d="M1126.02 78.61l91.451 52.328-25.465-141.176z" fill="#fdfdfd" stroke="#fdfdfd"/><path d="M1073.76 209.183l53.783 103.925 99.929-70.814z" fill="#f6f6f6" stroke="#f6f6f6"/><path d="M1073.76 209.183l153.712 33.111-10-111.356z" fill="#fcfcfc" stroke="#fcfcfc"/><path d="M1127.543 313.108l-17.086 121.397 88.17-32.988z" fill="#fbfbfb" stroke="#fbfbfb"/><path d="M1127.543 313.108l71.084 88.41-31.844-86.097z" fill="#fff" stroke="#fff"/><path d="M1127.543 313.108l39.24 2.313 60.689-73.127z" fill="#fafafa" stroke="#fafafa"/><path d="M1110.457 434.505l-51.91 78.839 129.613 23.029z" fill="#fcfcfc" stroke="#fcfcfc"/><path d="M1110.457 434.505l77.703 101.868 10.467-134.856z" fill="#f7f7f7" stroke="#f7f7f7"/><path d="M1058.546 513.344L1131.81 657.9l56.35-121.527z" fill="#fafafa" stroke="#fafafa"/><path d="M1131.809 657.9l-1.406 64.138 53.517 15.257z" fill="#f9f9f9" stroke="#f9f9f9"/><path d="M1131.809 657.9l52.11 79.395 41.844-49.536z" fill="#fafafa" stroke="#fafafa"/><path d="M1131.809 657.9l93.954 29.859-37.603-151.386z" fill="#f9f9f9" stroke="#f9f9f9"/><path d="M1130.403 722.038l-21.424 184.904 54.563-32.933z" fill="#f6f6f6" stroke="#f6f6f6"/><path d="M1130.403 722.038l33.139 151.971 20.378-136.714zm-21.423 184.904l-62.338 84.08 130.11-48.358z" fill="#fff" stroke="#fff"/><path d="M1108.98 906.942l67.771 35.722-13.21-68.655z" fill="#fefefe" stroke="#fefefe"/><path d="M1046.642 991.023l464.157 32.4-94.564-24.483z" fill="#f6f6f6" stroke="#f6f6f6"/><path d="M1046.642 991.023l369.593 7.917-239.484-56.276z" fill="#f9f9f9" stroke="#f9f9f9"/><path d="M1236.585-206.955l-33.46 131.98 93.523-22.312z" fill="#f7f7f7" stroke="#f7f7f7"/><path d="M1236.585-206.955l60.063 109.668 49.575-96.47z" fill="#fcfcfc" stroke="#fcfcfc"/><path d="M1236.585-206.955l109.638 13.198 61.799-60.56z" fill="#fdfdfd" stroke="#fdfdfd"/><path d="M1203.125-74.974l-11.119 64.736 104.642-87.049z" fill="#f7f7f7" stroke="#f7f7f7"/><path d="M1192.006-10.238l25.465 141.176 89.536-89.524z" fill="#fafafa" stroke="#fafafa"/><path d="M1192.006-10.238l115 51.652-10.358-138.7z" fill="#fefefe" stroke="#fefefe"/><path d="M1217.471 130.938l10 111.356 43.691-90.73z" fill="#f6f6f6" stroke="#f6f6f6"/><path d="M1217.471 130.938l53.691 20.626 35.845-110.15z" fill="#fff" stroke="#fff"/><path d="M1227.472 242.294l-60.689 73.127 123.855 32.006z" fill="#fcfcfc" stroke="#fcfcfc"/><path d="M1227.472 242.294l63.166 105.133 28.99-137.728z" fill="#fdfdfd" stroke="#fdfdfd"/><path d="M1227.472 242.294l92.156-32.595-48.466-58.135z" fill="#fbfbfb" stroke="#fbfbfb"/><path d="M1166.783 315.421l31.844 86.096 92.01-54.09z" fill="#fafafa" stroke="#fafafa"/><path d="M1198.627 401.517l-10.467 134.856 80.058-67.647z" fill="#fdfdfd" stroke="#fdfdfd"/><path d="M1198.627 401.517l69.59 67.209 22.42-121.3z" fill="#fbfbfb" stroke="#fbfbfb"/><path d="M1188.16 536.373l37.603 151.386 59.176-133.613z" fill="#fcfcfc" stroke="#fcfcfc"/><path d="M1188.16 536.373l96.78 17.773-16.722-85.42z" fill="#fff" stroke="#fff"/><path d="M1225.763 687.759l-41.843 49.536 118.885 41.047z" fill="#fefefe" stroke="#fefefe"/><path d="M1225.763 687.759l77.042 90.583 32.364-161.046z" fill="#fcfcfc" stroke="#fcfcfc"/><path d="M1225.763 687.759l109.406-70.463-50.23-63.15z" fill="#fcfcfc" stroke="#fcfcfc"/><path d="M1183.92 737.295l-20.378 136.714 118.125-32.913z" fill="#f7f7f7" stroke="#f7f7f7"/><path d="M1183.92 737.295l97.747 103.801 21.138-62.754zm-20.378 136.715l13.21 68.654 104.915-101.568z" fill="#fefefe" stroke="#fefefe"/><path d="M1176.751 942.664l239.484 56.276-112.872-54.042z" fill="#fff" stroke="#fff"/><path d="M1176.751 942.664l126.612 2.234-21.696-103.802z" fill="#fefefe" stroke="#fefefe"/><path d="M1346.223-193.757l-49.575 96.47 124.236-28.049z" fill="#f8f8f8" stroke="#f8f8f8"/><path d="M1346.223-193.757l74.661 68.421-12.862-128.982z" fill="#f7f7f7" stroke="#f7f7f7"/><path d="M1296.648-97.287l10.359 138.7 113.877-166.749z" fill="#f8f8f8" stroke="#f8f8f8"/><path d="M1307.007 41.414l-35.845 110.15 150.098-61.722z" fill="#fcfcfc" stroke="#fcfcfc"/><path d="M1307.007 41.414l114.253 48.428 35.761-54.444z" fill="#fbfbfb" stroke="#fbfbfb"/><path d="M1307.007 41.414l150.014-6.016-36.137-160.734z" fill="#fdfdfd" stroke="#fdfdfd"/><path d="M1271.162 151.564l48.466 58.135L1421.26 89.842z" fill="#f8f8f8" stroke="#f8f8f8"/><path d="M1319.628 209.699l-28.99 137.728 98.023-10.154z" fill="#f9f9f9" stroke="#f9f9f9"/><path d="M1319.628 209.699l69.033 127.574 31.494-84.31z" fill="#fcfcfc" stroke="#fcfcfc"/><path d="M1319.628 209.699l100.527 43.264 1.105-163.121z" fill="#f7f7f7" stroke="#f7f7f7"/><path d="M1290.638 347.427l-22.42 121.299 120.443-131.453z" fill="#fdfdfd" stroke="#fdfdfd"/><path d="M1268.218 468.726l16.721 85.42 89.939 25.453z" fill="#fbfbfb" stroke="#fbfbfb"/><path d="M1268.218 468.726l106.66 110.873 58.999-103.395z" fill="#f8f8f8" stroke="#f8f8f8"/><path d="M1268.218 468.726l165.659 7.478-45.216-138.931z" fill="#fdfdfd" stroke="#fdfdfd"/><path d="M1284.94 554.146l50.23 63.15 39.708-37.697z" fill="#fefefe" stroke="#fefefe"/><path d="M1335.17 617.296l-32.365 161.046 114.396-89.883z" fill="#f8f8f8" stroke="#f8f8f8"/><path d="M1335.17 617.296l82.031 71.163-42.323-108.86z" fill="#f8f8f8" stroke="#f8f8f8"/><path d="M1302.805 778.342l-21.138 62.754 129.745-56.764z" fill="#fefefe" stroke="#fefefe"/><path d="M1302.805 778.342l108.607 5.99 5.79-95.873z" fill="#fdfdfd" stroke="#fdfdfd"/><path d="M1281.667 841.096l21.696 103.802 141.28-38.497zm0 0l162.977 65.305-33.232-122.069z" fill="#fcfcfc" stroke="#fcfcfc"/><path d="M1303.363 944.898l112.872 54.042 28.409-92.54zm104.659-1199.216l12.862 128.982 146.904-62.237z" fill="#fbfbfb" stroke="#fbfbfb"/><path d="M1420.884-125.336l36.137 160.734 29.682-39.46z" fill="#f6f6f6" stroke="#f6f6f6"/><path d="M1420.884-125.336l65.82 121.274 37.657-67.204zm0 0l103.477 54.07 43.427-116.307z" fill="#f7f7f7" stroke="#f7f7f7"/><path d="M1457.021 35.398l-35.76 54.444 109.589-9.033z" fill="#fdfdfd" stroke="#fdfdfd"/><path d="M1457.021 35.398l73.829 45.411-44.147-84.871zm-35.761 54.444l-1.105 163.121 95.073-62.405z" fill="#f9f9f9" stroke="#f9f9f9"/><path d="M1421.26 89.842l93.968 100.716L1530.85 80.81z" fill="#fbfbfb" stroke="#fbfbfb"/><path d="M1420.155 252.963l-31.494 84.31 156.708-37.1z" fill="#f8f8f8" stroke="#f8f8f8"/><path d="M1420.155 252.963l125.214 47.21-30.14-109.615z" fill="#f6f6f6" stroke="#f6f6f6"/><path d="M1388.66 337.273l45.217 138.93 107.458-67.065z" fill="#fbfbfb" stroke="#fbfbfb"/><path d="M1388.66 337.273l152.675 71.865 4.034-108.965z" fill="#fff" stroke="#fff"/><path d="M1433.877 476.204l-59 103.395 163.712-56.437z" fill="#fcfcfc" stroke="#fcfcfc"/><path d="M1433.877 476.204l104.712 46.958 2.746-114.024z" fill="#fefefe" stroke="#fefefe"/><path d="M1374.878 579.599l42.323 108.86 128.302-40.45z" fill="#fbfbfb" stroke="#fbfbfb"/><path d="M1374.878 579.599l170.625 68.41-6.914-124.847z" fill="#fcfcfc" stroke="#fcfcfc"/><path d="M1417.201 688.459l-5.789 95.873 119.74 5.43z" fill="#f7f7f7" stroke="#f7f7f7"/><path d="M1417.201 688.459l113.951 101.304 14.351-141.754z" fill="#fefefe" stroke="#fefefe"/><path d="M1411.412 784.332l33.232 122.069 86.508-116.638z" fill="#fcfcfc" stroke="#fcfcfc"/><path d="M1444.644 906.4l-28.41 92.54 94.565 24.484z" fill="#fafafa" stroke="#fafafa"/><path d="M1444.644 906.4l66.155 117.024 27.815-142.672z" fill="#f8f8f8" stroke="#f8f8f8"/><path d="M1444.644 906.4l93.97-25.648-7.462-90.99z" fill="#f8f8f8" stroke="#f8f8f8"/><path d="M1567.788-187.573l-43.427 116.307 6.489 152.075z" fill="#fefefe" stroke="#fefefe"/><path d="M1567.788-187.573L1530.85 80.81l14.519 219.364z" fill="#fdfdfd" stroke="#fdfdfd"/><path d="M1567.788-187.573l-22.42 487.746.135 347.836z" fill="#f9f9f9" stroke="#f9f9f9"/><path d="M1524.361-71.266l-37.658 67.204 44.147 84.871z" fill="#f6f6f6" stroke="#f6f6f6"/><path d="M1530.85 80.81l-15.622 109.748 30.14 109.615zm14.519 219.363l-4.034 108.965 4.168 238.871z" fill="#fdfdfd" stroke="#fdfdfd"/><path d="M1541.335 409.138l-2.746 114.024 6.914 124.847z" fill="#f7f7f7" stroke="#f7f7f7"/><path d="M1545.503 648.01l-14.35 141.753 7.461 90.989z" fill="#fbfbfb" stroke="#fbfbfb"/></g></svg>