<svg xmlns="http://www.w3.org/2000/svg" width="1400" height="800"><g class="triangles"><path class="primary" d="M-179.772-239.026l-39.83 172.817 108.342-122.44z" fill="#fefefe" stroke="#fefefe"/><path class="primary" d="M-179.772-239.026l68.512 50.377 137.846-55.515z" fill="#f6f6f6" stroke="#f6f6f6"/><path d="M-219.602-66.21l-24.056 253.082 55.802-171.065z" fill="#fefefe" stroke="#fefefe"/><path d="M-219.602-66.21l31.746 82.017 59.5-39.935z" fill="#f8f8f8" stroke="#f8f8f8"/><path d="M-219.602-66.21l91.246 42.082 2.54-46.085z" fill="#fafafa" stroke="#fafafa"/><path d="M-219.602-66.21l93.785-4.003 14.557-118.436z" fill="#f7f7f7" stroke="#f7f7f7"/><path d="M-187.856 15.807l-55.802 171.065 67.03-35.622z" fill="#fafafa" stroke="#fafafa"/><path d="M-187.856 15.807l11.228 135.443 76.839-63.937z" fill="#f8f8f8" stroke="#f8f8f8"/><path d="M-187.856 15.807l88.067 71.506-28.567-111.441z" fill="#fbfbfb" stroke="#fbfbfb"/><path d="M-176.628 151.25l-67.03 35.622 126.56 17.488z" fill="#f8f8f8" stroke="#f8f8f8"/><path d="M-176.628 151.25l59.53 53.11 17.309-117.047z" fill="#fafafa" stroke="#fafafa"/><path d="M-243.658 186.872l-10.728 617.899 28.01-233.53z" fill="#fcfcfc" stroke="#fcfcfc"/><path d="M-243.658 186.872l17.281 384.369 3.84-177.29z" fill="#fff" stroke="#fff"/><path d="M-243.658 186.872l21.122 207.078 2.106-24.286z" fill="#f8f8f8" stroke="#f8f8f8"/><path d="M-243.658 186.872l23.228 182.792 70.154-4.577z" fill="#fcfcfc" stroke="#fcfcfc"/><path d="M-243.658 186.872l93.382 178.215 33.179-160.727z" fill="#fdfdfd" stroke="#fdfdfd"/><path d="M-220.43 369.664l-2.106 24.286 72.26-28.863z" fill="#f6f6f6" stroke="#f6f6f6"/><path d="M-222.536 393.95l-3.84 177.291 102.945-129.99z" fill="#fafafa" stroke="#fafafa"/><path d="M-222.536 393.95l99.105 47.301-26.845-76.164z" fill="#fefefe" stroke="#fefefe"/><path d="M-226.377 571.241l-28.009 233.53 49.844-171.058z" fill="#f9f9f9" stroke="#f9f9f9"/><path d="M-226.377 571.241l21.835 62.472 115.17-8.576z" fill="#fafafa" stroke="#fafafa"/><path d="M-226.377 571.241l137.004 53.896 6.311-107.234z" fill="#f6f6f6" stroke="#f6f6f6"/><path d="M-226.377 571.241l143.315-53.338-40.37-76.652zm21.835 62.472l-49.844 171.058 173.981-67.706z" fill="#fff" stroke="#fff"/><path d="M-204.542 633.713l124.137 103.352-8.968-111.928z" fill="#fcfcfc" stroke="#fcfcfc"/><path d="M-254.386 804.77l8.078 160.62 51.087-49.941z" fill="#f8f8f8" stroke="#f8f8f8"/><path d="M-254.386 804.77l59.165 110.679 82.327-2.54z" fill="#fefefe" stroke="#fefefe"/><path d="M-254.386 804.77l141.492 108.14 32.489-175.845z" fill="#fcfcfc" stroke="#fcfcfc"/><path d="M-195.221 915.449l-51.087 49.942 120.313 2.216z" fill="#f7f7f7" stroke="#f7f7f7"/><path d="M-195.221 915.449l69.226 52.158 13.101-54.698z" fill="#fafafa" stroke="#fafafa"/><path d="M-246.308 965.39L34.5 1004.43l-160.494-36.823z" fill="#fff" stroke="#fff"/><path d="M-111.26-188.65l-14.557 118.437 101.777-65.21z" fill="#f7f7f7" stroke="#f7f7f7"/><path d="M-111.26-188.65l87.22 53.228 50.626-108.742z" fill="#fff" stroke="#fff"/><path d="M-125.817-70.213l-2.539 46.085 85.138 39.064z" fill="#fafafa" stroke="#fafafa"/><path d="M-125.817-70.213l82.6 85.149 19.177-150.358z" fill="#f9f9f9" stroke="#f9f9f9"/><path d="M-128.356-24.128l28.567 111.44 56.571-72.376z" fill="#fff" stroke="#fff"/><path d="M-99.79 87.313l-17.307 117.047L8.317 138.542z" fill="#fdfdfd" stroke="#fdfdfd"/><path d="M-99.79 87.313l108.107 51.23-51.535-123.607z" fill="#fff" stroke="#fff"/><path d="M-117.097 204.36l-33.179 160.727 137.12-29.526z" fill="#fefefe" stroke="#fefefe"/><path d="M-117.097 204.36l103.942 131.2 2.769-82.404z" fill="#f7f7f7" stroke="#f7f7f7"/><path d="M-117.097 204.36l106.71 48.796L8.318 138.542z" fill="#fcfcfc" stroke="#fcfcfc"/><path d="M-150.276 365.087l26.845 76.164 110.276-105.69z" fill="#f7f7f7" stroke="#f7f7f7"/><path d="M-123.431 441.251l40.37 76.652 76.126-95.54z" fill="#fefefe" stroke="#fefefe"/><path d="M-123.431 441.251l116.496-18.888-6.22-86.802z" fill="#fcfcfc" stroke="#fcfcfc"/><path d="M-83.062 517.903l-6.31 107.234 53.025-49.12z" fill="#f8f8f8" stroke="#f8f8f8"/><path d="M-83.062 517.903l46.715 58.114 29.412-153.654z" fill="#fcfcfc" stroke="#fcfcfc"/><path d="M-89.373 625.137l8.968 111.928 99.521-95.85z" fill="#fdfdfd" stroke="#fdfdfd"/><path d="M-89.373 625.137l108.49 16.078-55.464-65.198z" fill="#f6f6f6" stroke="#f6f6f6"/><path d="M-80.405 737.065l-32.489 175.844L8.365 798.967z" fill="#fefefe" stroke="#fefefe"/><path d="M-80.405 737.065l88.77 61.902 61.301-46.233z" fill="#f9f9f9" stroke="#f9f9f9"/><path d="M-80.405 737.065l150.071 15.669-50.55-111.52z" fill="#fdfdfd" stroke="#fdfdfd"/><path d="M-112.894 912.91l-13.101 54.697 148.926-56.22z" fill="#f7f7f7" stroke="#f7f7f7"/><path d="M-112.894 912.91l135.825-1.523-14.566-112.42zm-13.101 54.697l160.494 36.823-11.568-93.043z" fill="#fcfcfc" stroke="#fcfcfc"/><path d="M26.586-244.164L-24.04-135.422l153.296 18.341z" fill="#fff" stroke="#fff"/><path d="M26.586-244.164l102.67 127.083-.67-100.854z" fill="#fefefe" stroke="#fefefe"/><path d="M26.586-244.164l102 26.229L233.93-239.32zm0 0l207.345 4.844 74.459-8.63z" fill="#fff" stroke="#fff"/><path d="M-24.04-135.422L-43.218 14.936l172.474-132.017z" fill="#f7f7f7" stroke="#f7f7f7"/><path d="M-43.218 14.936L8.317 138.542 123.44 71.116z" fill="#fdfdfd" stroke="#fdfdfd"/><path d="M-43.218 14.936l166.657 56.18 23.583-74.864z" fill="#f8f8f8" stroke="#f8f8f8"/><path d="M-43.218 14.936l190.24-18.684-17.766-113.333z" fill="#fbfbfb" stroke="#fbfbfb"/><path d="M8.317 138.542l-18.703 114.614 109.515-56.884z" fill="#fcfcfc" stroke="#fcfcfc"/><path d="M8.317 138.542l90.812 57.73 24.31-125.156z" fill="#f9f9f9" stroke="#f9f9f9"/><path d="M-10.386 253.156l-2.77 82.405 97.794 3.256z" fill="#fefefe" stroke="#fefefe"/><path d="M-10.386 253.156l95.024 85.661 14.49-142.545z" fill="#fdfdfd" stroke="#fdfdfd"/><path d="M-13.155 335.56l6.22 86.803 91.573-83.546zm6.22 86.803l-29.412 153.654 188.5-38.684z" fill="#f8f8f8" stroke="#f8f8f8"/><path d="M-6.935 422.363l159.089 114.97-22.251-135.576z" fill="#f9f9f9" stroke="#f9f9f9"/><path d="M-6.935 422.363l136.838-20.606-45.265-62.94z" fill="#f8f8f8" stroke="#f8f8f8"/><path d="M-36.347 576.017l55.463 65.198 83.507-29.165z" fill="#fbfbfb" stroke="#fbfbfb"/><path d="M-36.347 576.017l138.97 36.033 49.53-74.717z" fill="#f9f9f9" stroke="#f9f9f9"/><path d="M19.116 641.215l50.55 111.519 32.957-140.684z" fill="#fefefe" stroke="#fefefe"/><path d="M8.365 798.967l14.566 112.42 109.094-62.88z" fill="#fafafa" stroke="#fafafa"/><path d="M8.365 798.967l123.66 49.54-62.359-95.773z" fill="#fefefe" stroke="#fefefe"/><path d="M22.93 911.387l11.57 93.043 110.386-17.272z" fill="#f9f9f9" stroke="#f9f9f9"/><path d="M22.93 911.387l121.956 75.771-12.861-138.652z" fill="#f7f7f7" stroke="#f7f7f7"/><path d="M34.5 1004.43l357.996 13.526-99.355-13.051z" fill="#fcfcfc" stroke="#fcfcfc"/><path d="M34.5 1004.43l258.64.475-148.254-17.747z" fill="#fbfbfb" stroke="#fbfbfb"/><path d="M128.585-217.935l.671 100.854 104.675-122.24z" fill="#f8f8f8" stroke="#f8f8f8"/><path d="M129.256-117.08L147.022-3.749l75.075-66.572z" fill="#f9f9f9" stroke="#f9f9f9"/><path d="M129.256-117.08l92.84 46.76 11.835-169z" fill="#fcfcfc" stroke="#fcfcfc"/><path d="M147.022-3.748l-23.583 74.864L186.667 29.9z" fill="#f7f7f7" stroke="#f7f7f7"/><path d="M147.022-3.748L186.667 29.9l35.43-100.22z" fill="#fafafa" stroke="#fafafa"/><path d="M123.439 71.116l-24.31 125.156 79.516 18.618z" fill="#f9f9f9" stroke="#f9f9f9"/><path d="M123.439 71.116l55.206 143.774 69.11-86.644z" fill="#f8f8f8" stroke="#f8f8f8"/><path d="M123.439 71.116l124.316 57.13L186.667 29.9z" fill="#f7f7f7" stroke="#f7f7f7"/><path d="M99.129 196.272l-14.49 142.545 94.006-123.927z" fill="#f9f9f9" stroke="#f9f9f9"/><path d="M84.638 338.817l45.265 62.94 91.404-92.368z" fill="#fff" stroke="#fff"/><path d="M84.638 338.817l136.669-29.428-42.662-94.5z" fill="#f7f7f7" stroke="#f7f7f7"/><path d="M129.903 401.757l22.25 135.576 75.092-104.66z" fill="#f9f9f9" stroke="#f9f9f9"/><path d="M129.903 401.757l97.342 30.917-5.938-123.285z" fill="#fdfdfd" stroke="#fdfdfd"/><path d="M152.154 537.333l-49.531 74.717 156.898 18.447z" fill="#f9f9f9" stroke="#f9f9f9"/><path d="M152.154 537.333l107.367 93.164-37.192-118.24z" fill="#fdfdfd" stroke="#fdfdfd"/><path d="M152.154 537.333l70.175-25.076 4.916-79.583z" fill="#f8f8f8" stroke="#f8f8f8"/><path d="M102.623 612.05L69.666 752.734l129.812 46.616z" fill="#fcfcfc" stroke="#fcfcfc"/><path d="M102.623 612.05l96.855 187.3 60.043-168.853z" fill="#fdfdfd" stroke="#fdfdfd"/><path d="M69.666 752.734l62.359 95.772 67.453-49.156z" fill="#fbfbfb" stroke="#fbfbfb"/><path d="M132.025 848.506l12.86 138.652 80.225-33.549z" fill="#fff" stroke="#fff"/><path d="M132.025 848.506L225.11 953.61l23.993-61.688z" fill="#fcfcfc" stroke="#fcfcfc"/><path d="M132.025 848.506l117.078 43.415-49.625-92.571z" fill="#fdfdfd" stroke="#fdfdfd"/><path d="M144.886 987.158l148.255 17.747-68.03-51.296z" fill="#f6f6f6" stroke="#f6f6f6"/><path d="M233.931-239.32l-11.834 169 86.293-177.63z" fill="#fff" stroke="#fff"/><path d="M222.097-70.32L186.667 29.9l124.939 13.578z" fill="#f9f9f9" stroke="#f9f9f9"/><path d="M222.097-70.32l89.509 113.798 42.81-110.826z" fill="#f6f6f6" stroke="#f6f6f6"/><path d="M222.097-70.32l132.32 2.972-46.027-180.601z" fill="#fefefe" stroke="#fefefe"/><path d="M186.667 29.9l61.088 98.346 63.85-84.768z" fill="#fafafa" stroke="#fafafa"/><path d="M247.755 128.246l-69.11 86.644 117.43-1.34z" fill="#fcfcfc" stroke="#fcfcfc"/><path d="M247.755 128.246l48.32 85.305 56.143-125.1z" fill="#f7f7f7" stroke="#f7f7f7"/><path d="M247.755 128.246l104.463-39.794-40.612-44.974z" fill="#fdfdfd" stroke="#fdfdfd"/><path d="M178.645 214.89l42.662 94.499 74.768-95.838z" fill="#fff" stroke="#fff"/><path d="M221.307 309.389l5.938 123.285 96.966-96.04z" fill="#fbfbfb" stroke="#fbfbfb"/><path d="M221.307 309.389l102.904 27.245-28.136-123.083z" fill="#fdfdfd" stroke="#fdfdfd"/><path d="M227.245 432.674l-4.916 79.583 115.908-115.064z" fill="#fcfcfc" stroke="#fcfcfc"/><path d="M227.245 432.674l110.992-35.481-14.026-60.56z" fill="#fdfdfd" stroke="#fdfdfd"/><path d="M222.329 512.257l37.192 118.24 46.374-50.202z" fill="#f7f7f7" stroke="#f7f7f7"/><path d="M222.329 512.257l83.566 68.038 32.342-183.102z" fill="#f6f6f6" stroke="#f6f6f6"/><path d="M259.521 630.497L199.478 799.35l84.148-42.135z" fill="#f9f9f9" stroke="#f9f9f9"/><path d="M259.521 630.497l24.105 126.718L342 644.992z" fill="#fafafa" stroke="#fafafa"/><path d="M259.521 630.497L342 644.992l-36.104-64.697z" fill="#f6f6f6" stroke="#f6f6f6"/><path d="M199.478 799.35l49.625 92.57 34.523-134.705z" fill="#fbfbfb" stroke="#fbfbfb"/><path d="M249.103 891.92l-23.993 61.69 68.03 51.295z" fill="#f7f7f7" stroke="#f7f7f7"/><path d="M249.103 891.92l44.038 112.985 106.953-100.643z" fill="#fcfcfc" stroke="#fcfcfc"/><path d="M249.103 891.92l150.99 12.342-32.514-47.79z" fill="#fcfcfc" stroke="#fcfcfc"/><path d="M249.103 891.92l118.476-35.448-83.953-99.257z" fill="#fff" stroke="#fff"/><path d="M308.39-247.95l46.027 180.602 116.34-78.737z" fill="#f7f7f7" stroke="#f7f7f7"/><path d="M308.39-247.95l162.367 101.865-29.763-96.424z" fill="#f7f7f7" stroke="#f7f7f7"/><path d="M308.39-247.95l132.604 5.441 461.939-6.138z" fill="#fbfbfb" stroke="#fbfbfb"/><path d="M354.417-67.348L311.606 43.478l105.16-56.613zm0 0l62.35 54.213 53.99-132.95z" fill="#fcfcfc" stroke="#fcfcfc"/><path d="M311.606 43.478l40.612 44.974 64.549-101.587z" fill="#f8f8f8" stroke="#f8f8f8"/><path d="M352.218 88.452L296.075 213.55l127.128-63.017z" fill="#fafafa" stroke="#fafafa"/><path d="M352.218 88.452l70.985 62.082-6.436-163.67z" fill="#fff" stroke="#fff"/><path d="M296.075 213.55l28.136 123.084 105.49-46.397z" fill="#fefefe" stroke="#fefefe"/><path d="M296.075 213.55L429.7 290.238l4.731-102.52zm0 0l138.357-25.833-11.23-37.183z" fill="#fdfdfd" stroke="#fdfdfd"/><path d="M324.21 336.634l14.027 60.559 91.464-106.956z" fill="#fbfbfb" stroke="#fbfbfb"/><path d="M338.237 397.193l-32.342 183.102L401.29 449.98z" fill="#fcfcfc" stroke="#fcfcfc"/><path d="M338.237 397.193l63.054 52.788 28.41-159.744z" fill="#fdfdfd" stroke="#fdfdfd"/><path d="M305.895 580.295l36.104 64.697 125.234-90.1z" fill="#fafafa" stroke="#fafafa"/><path d="M305.895 580.295l161.338-25.403-65.942-104.91z" fill="#fdfdfd" stroke="#fdfdfd"/><path d="M341.999 644.992l-58.373 112.223 113.334-82.16z" fill="#fafafa" stroke="#fafafa"/><path d="M341.999 644.992l54.961 30.062 70.273-120.162z" fill="#fdfdfd" stroke="#fdfdfd"/><path d="M283.626 757.215l83.953 99.257 47.002-77.62z" fill="#fcfcfc" stroke="#fcfcfc"/><path d="M283.626 757.215l130.955 21.638-17.62-103.799z" fill="#f7f7f7" stroke="#f7f7f7"/><path d="M367.58 856.472l32.514 47.79 14.487-125.41z" fill="#f6f6f6" stroke="#f6f6f6"/><path d="M293.14 1004.905l99.356 13.051 7.598-113.694z" fill="#f9f9f9" stroke="#f9f9f9"/><path d="M440.994-242.509l29.763 96.424 111.848-73.31z" fill="#f7f7f7" stroke="#f7f7f7"/><path d="M440.994-242.509l141.611 23.114 164.035-18.309z" fill="#fefefe" stroke="#fefefe"/><path d="M440.994-242.509l305.646 4.805 156.293-10.943z" fill="#fcfcfc" stroke="#fcfcfc"/><path d="M470.757-146.085l-53.99 132.95L520.922-9.95z" fill="#f7f7f7" stroke="#f7f7f7"/><path d="M470.757-146.085L520.922-9.949l59.912-69.433z" fill="#f6f6f6" stroke="#f6f6f6"/><path d="M470.757-146.085l110.077 66.703 30.319-99.51z" fill="#f6f6f6" stroke="#f6f6f6"/><path d="M470.757-146.085l140.396-32.808-28.548-40.502z" fill="#f7f7f7" stroke="#f7f7f7"/><path d="M416.767-13.135l6.436 163.669L520.922-9.95z" fill="#fcfcfc" stroke="#fcfcfc"/><path d="M423.203 150.534l11.23 37.183 91.453-45.87z" fill="#fbfbfb" stroke="#fbfbfb"/><path d="M423.203 150.534l102.683-8.687-4.964-151.796z" fill="#f9f9f9" stroke="#f9f9f9"/><path d="M434.432 187.717l-4.731 102.52 135.245-48.5z" fill="#fafafa" stroke="#fafafa"/><path d="M434.432 187.717l130.514 54.02-39.06-99.89z" fill="#fefefe" stroke="#fefefe"/><path d="M429.701 290.237l-28.41 159.744L524.668 349.86z" fill="#fafafa" stroke="#fafafa"/><path d="M429.701 290.237l94.967 59.623 40.278-108.123z" fill="#fff" stroke="#fff"/><path d="M401.29 449.981l65.943 104.911 42.303-18.45z" fill="#fbfbfb" stroke="#fbfbfb"/><path d="M401.29 449.981l108.246 86.462 48.433-100.162z" fill="#fff" stroke="#fff"/><path d="M401.29 449.981l156.679-13.7-33.3-86.421z" fill="#fbfbfb" stroke="#fbfbfb"/><path d="M467.233 554.892L396.96 675.054l124.12 9.889z" fill="#fff" stroke="#fff"/><path d="M467.233 554.892l53.848 130.05-11.545-148.5z" fill="#fcfcfc" stroke="#fcfcfc"/><path d="M396.96 675.054l17.621 103.799 106.5-93.91zm17.621 103.799l-14.487 125.409L585.04 868.29z" fill="#fafafa" stroke="#fafafa"/><path d="M414.581 778.853l170.46 89.438-39.205-106.681z" fill="#fefefe" stroke="#fefefe"/><path d="M414.581 778.853l131.255-17.243-24.755-76.667z" fill="#f6f6f6" stroke="#f6f6f6"/><path d="M400.094 904.262l-7.598 113.694 157.966 2.364z" fill="#fcfcfc" stroke="#fcfcfc"/><path d="M400.094 904.262l150.368 116.058 34.578-152.029z" fill="#f6f6f6" stroke="#f6f6f6"/><path d="M582.605-219.395l28.548 40.502 135.487-58.81z" fill="#f7f7f7" stroke="#f7f7f7"/><path d="M580.834-79.382L520.922-9.95 678.156 4.57z" fill="#fefefe" stroke="#fefefe"/><path d="M580.834-79.382L678.156 4.57l-.418-102.19z" fill="#f8f8f8" stroke="#f8f8f8"/><path d="M580.834-79.382l96.904-18.238-66.585-81.273z" fill="#f7f7f7" stroke="#f7f7f7"/><path d="M520.922-9.949l4.964 151.796 94.19-47.153z" fill="#f8f8f8" stroke="#f8f8f8"/><path d="M520.922-9.949l99.154 104.643 58.08-90.123z" fill="#f6f6f6" stroke="#f6f6f6"/><path d="M525.886 141.847l39.06 99.89 69.581-10.645z" fill="#f7f7f7" stroke="#f7f7f7"/><path d="M525.886 141.847l108.641 89.245-14.45-136.398z" fill="#fdfdfd" stroke="#fdfdfd"/><path d="M564.946 241.737L524.668 349.86l145.267 19.934z" fill="#f9f9f9" stroke="#f9f9f9"/><path d="M564.946 241.737l104.989 128.057-35.408-138.702z" fill="#fefefe" stroke="#fefefe"/><path d="M524.668 349.86l33.301 86.42 111.966-66.486z" fill="#fcfcfc" stroke="#fcfcfc"/><path d="M557.969 436.28l-48.433 100.163 148.34-33.22z" fill="#fdfdfd" stroke="#fdfdfd"/><path d="M557.969 436.28l99.907 66.943 16.753-27.592z" fill="#fff" stroke="#fff"/><path d="M557.969 436.28l116.66 39.35-4.694-105.836z" fill="#fcfcfc" stroke="#fcfcfc"/><path d="M509.536 536.443l11.545 148.5 159.409-64.939z" fill="#fafafa" stroke="#fafafa"/><path d="M509.536 536.443l170.954 83.561-22.614-116.78z" fill="#fafafa" stroke="#fafafa"/><path d="M521.08 684.943l24.756 76.667 66.48 5zm0 0l91.235 81.666 68.175-146.605z" fill="#fdfdfd" stroke="#fdfdfd"/><path d="M545.836 761.61l39.204 106.681 27.275-101.682z" fill="#fdfdfd" stroke="#fdfdfd"/><path d="M585.04 868.291l-34.578 152.03 114.451-23.09z" fill="#fafafa" stroke="#fafafa"/><path d="M585.04 868.291l79.873 128.94 20.009-151.119z" fill="#f8f8f8" stroke="#f8f8f8"/><path d="M585.04 868.291l99.882-22.179-72.607-79.503z" fill="#fdfdfd" stroke="#fdfdfd"/><path d="M550.462 1020.32l216.852 2.133-102.4-25.222z" fill="#fbfbfb" stroke="#fbfbfb"/><path d="M611.153-178.893l66.585 81.273 68.902-140.084z" fill="#fafafa" stroke="#fafafa"/><path d="M677.738-97.62l.418 102.19 61.24-33.157z" fill="#fbfbfb" stroke="#fbfbfb"/><path d="M677.738-97.62l61.657 69.033.36-41.46z" fill="#f7f7f7" stroke="#f7f7f7"/><path d="M677.738-97.62l62.017 27.573 6.885-167.657z" fill="#fff" stroke="#fff"/><path d="M678.156 4.57l-58.08 90.124 126.955 7.539z" fill="#f9f9f9" stroke="#f9f9f9"/><path d="M678.156 4.57l68.875 97.663-7.636-130.82z" fill="#fdfdfd" stroke="#fdfdfd"/><path d="M620.076 94.694l14.451 136.398 112.504-128.86z" fill="#f9f9f9" stroke="#f9f9f9"/><path d="M634.527 231.092l35.408 138.702 113.83-33.301z" fill="#f6f6f6" stroke="#f6f6f6"/><path d="M634.527 231.092l149.239 105.4 20.553-114.587zm0 0l169.792-9.187-57.288-119.672z" fill="#fff" stroke="#fff"/><path d="M669.935 369.794l4.694 105.837 72.045-45.65z" fill="#f7f7f7" stroke="#f7f7f7"/><path d="M669.935 369.794l76.739 60.187 37.092-93.488z" fill="#fcfcfc" stroke="#fcfcfc"/><path d="M674.629 475.63l-16.753 27.593 118.713 33.374z" fill="#fbfbfb" stroke="#fbfbfb"/><path d="M674.629 475.63l101.96 60.967-29.915-106.616zm-16.753 27.593l22.614 116.781 96.099-83.407z" fill="#fefefe" stroke="#fefefe"/><path d="M680.49 620.004L612.315 766.61l143.962-38.549z" fill="#fbfbfb" stroke="#fbfbfb"/><path d="M680.49 620.004l75.787 108.056 17.793-44.282z" fill="#fcfcfc" stroke="#fcfcfc"/><path d="M680.49 620.004l93.58 63.774 2.519-147.181zM612.315 766.61l72.607 79.502 71.355-118.052z" fill="#fdfdfd" stroke="#fdfdfd"/><path d="M684.922 846.112l-20.009 151.119 127.693-87.827z" fill="#f9f9f9" stroke="#f9f9f9"/><path d="M684.922 846.112l107.684 63.292 36.006-113.925z" fill="#fff" stroke="#fff"/><path d="M684.922 846.112l143.69-50.633-72.335-67.419z" fill="#fbfbfb" stroke="#fbfbfb"/><path d="M664.913 997.23l102.4 25.223 25.293-113.05z" fill="#f6f6f6" stroke="#f6f6f6"/><path d="M746.64-237.704l-6.885 167.657L899.912-86.44z" fill="#fdfdfd" stroke="#fdfdfd"/><path d="M746.64-237.704L899.912-86.439l3.02-162.208z" fill="#f9f9f9" stroke="#f9f9f9"/><path d="M739.755-70.047l-.36 41.46 113.839.345z" fill="#fefefe" stroke="#fefefe"/><path d="M739.755-70.047l113.479 41.805 46.678-58.197z" fill="#fafafa" stroke="#fafafa"/><path d="M739.395-28.587l7.636 130.82 93.293-29.592zm0 0L840.324 72.64l12.91-100.883z" fill="#f8f8f8" stroke="#f8f8f8"/><path d="M747.03 102.233l57.289 119.672 36.005-149.264z" fill="#fcfcfc" stroke="#fcfcfc"/><path d="M804.319 221.905l-20.553 114.588 84.63 17.824z" fill="#fff" stroke="#fff"/><path d="M804.319 221.905l64.078 132.412 40.314-102.533z" fill="#f9f9f9" stroke="#f9f9f9"/><path d="M804.319 221.905l104.392 29.88 60.973-65.348z" fill="#f6f6f6" stroke="#f6f6f6"/><path d="M804.319 221.905l165.365-35.468-129.36-113.796z" fill="#fcfcfc" stroke="#fcfcfc"/><path d="M783.766 336.493l-37.092 93.488 121.723-75.664z" fill="#f9f9f9" stroke="#f9f9f9"/><path d="M746.674 429.98l29.915 106.617 114.41-73.667z" fill="#fafafa" stroke="#fafafa"/><path d="M746.674 429.98l144.325 32.95-22.602-108.613zm29.915 106.617l-2.519 147.18 80.337.932zm0 0l77.818 148.112 53.309-107.243z" fill="#f7f7f7" stroke="#f7f7f7"/><path d="M776.589 536.597l131.127 40.87-16.717-114.537z" fill="#fcfcfc" stroke="#fcfcfc"/><path d="M774.07 683.778l-17.793 44.282 98.13-43.351z" fill="#fafafa" stroke="#fafafa"/><path d="M756.277 728.06l72.335 67.42 25.795-110.771z" fill="#fcfcfc" stroke="#fcfcfc"/><path d="M792.606 909.404l-25.292 113.049 86.22-70.978z" fill="#fefefe" stroke="#fefefe"/><path d="M792.606 909.404l60.927 42.07 29.233-74.272z" fill="#fff" stroke="#fff"/><path d="M792.606 909.404l90.16-32.202-54.154-81.723z" fill="#fff" stroke="#fff"/><path d="M767.314 1022.453l623.225-12.018-316.062-8.718z" fill="#f9f9f9" stroke="#f9f9f9"/><path d="M767.314 1022.453l307.163-20.736-113.07-32.09z" fill="#f9f9f9" stroke="#f9f9f9"/><path d="M767.314 1022.453l194.092-52.826-107.873-18.152z" fill="#fdfdfd" stroke="#fdfdfd"/><path d="M902.933-248.647l-3.021 162.208 78.766-33.915z" fill="#fcfcfc" stroke="#fcfcfc"/><path d="M902.933-248.647l75.745 128.293 43.21-119.45z" fill="#fdfdfd" stroke="#fdfdfd"/><path d="M902.933-248.647l118.955 8.842 486.073-.223z" fill="#fbfbfb" stroke="#fbfbfb"/><path d="M899.912-86.439l-46.678 58.197 90.611-11.66z" fill="#f8f8f8" stroke="#f8f8f8"/><path d="M899.912-86.439L943.845-39.9l34.833-80.453z" fill="#f6f6f6" stroke="#f6f6f6"/><path d="M853.234-28.242l-12.91 100.883L943.845-39.9z" fill="#f9f9f9" stroke="#f9f9f9"/><path d="M840.324 72.641l129.36 113.796 34.03-58.834z" fill="#fcfcfc" stroke="#fcfcfc"/><path d="M840.324 72.641l163.39 54.962-59.869-167.504z" fill="#f9f9f9" stroke="#f9f9f9"/><path d="M908.711 251.784l-40.314 102.533 81.69-11.475z" fill="#fefefe" stroke="#fefefe"/><path d="M908.711 251.784l41.377 91.058 111.316-121.399z" fill="#fcfcfc" stroke="#fcfcfc"/><path d="M908.711 251.784l152.693-30.341-91.72-35.006z" fill="#f8f8f8" stroke="#f8f8f8"/><path d="M868.397 354.317l22.602 108.613 59.089-120.088z" fill="#fff" stroke="#fff"/><path d="M891 462.93l16.716 114.536 107.43-73.603z" fill="#fcfcfc" stroke="#fcfcfc"/><path d="M891 462.93l124.146 40.933-3.515-109.166z" fill="#fefefe" stroke="#fefefe"/><path d="M891 462.93l120.63-68.233-61.542-51.855zm16.716 114.536L854.407 684.71l87.095 10.917z" fill="#f9f9f9" stroke="#f9f9f9"/><path d="M907.716 577.466l33.786 118.16 125.198-60.737z" fill="#fff" stroke="#fff"/><path d="M907.716 577.466L1066.7 634.89l-51.554-131.026z" fill="#fff" stroke="#fff"/><path d="M854.407 684.709l-25.795 110.77 112.89-99.853z" fill="#fefefe" stroke="#fefefe"/><path d="M828.612 795.48l54.154 81.722L966.374 753.8z" fill="#fdfdfd" stroke="#fdfdfd"/><path d="M828.612 795.48l137.762-41.68-24.872-58.174z" fill="#fdfdfd" stroke="#fdfdfd"/><path d="M882.766 877.202l-29.233 74.273 107.873 18.152z" fill="#fff" stroke="#fff"/><path d="M882.766 877.202l78.64 92.425 57.961-64.07z" fill="#fbfbfb" stroke="#fbfbfb"/><path d="M882.766 877.202l136.601 28.355L966.374 753.8zm139.122-1117.007l-43.21 119.45 144.406-91.16zm0 0l101.196 28.29 69.16-1.997z" fill="#f8f8f8" stroke="#f8f8f8"/><path d="M1021.888-239.805l170.356 26.293 315.717-26.516z" fill="#f7f7f7" stroke="#f7f7f7"/><path d="M978.678-120.354l-34.833 80.453 123.795-25.82z" fill="#fcfcfc" stroke="#fcfcfc"/><path d="M978.678-120.354l88.962 54.633 55.444-145.794z" fill="#fafafa" stroke="#fafafa"/><path d="M943.845-39.901l59.87 167.504 59.861-152.272z" fill="#f9f9f9" stroke="#f9f9f9"/><path d="M943.845-39.901l119.731 15.232 4.064-41.052z" fill="#fbfbfb" stroke="#fbfbfb"/><path d="M1003.715 127.603l-34.03 58.834 91.719 35.006z" fill="#f7f7f7" stroke="#f7f7f7"/><path d="M1003.715 127.603l57.689 93.84 30.243-148.058z" fill="#f6f6f6" stroke="#f6f6f6"/><path d="M1003.715 127.603l87.932-54.218-28.07-98.054z" fill="#f9f9f9" stroke="#f9f9f9"/><path d="M950.088 342.842l61.543 51.855 54.077-27.97z" fill="#fefefe" stroke="#fefefe"/><path d="M950.088 342.842l115.62 23.885-4.304-145.284z" fill="#f7f7f7" stroke="#f7f7f7"/><path d="M1011.63 394.697l3.516 109.166 97.1-32.68z" fill="#fff" stroke="#fff"/><path d="M1011.63 394.697l100.616 76.486-46.538-104.456z" fill="#f7f7f7" stroke="#f7f7f7"/><path d="M1015.146 503.863l51.554 131.026 50.862-104.973z" fill="#fefefe" stroke="#fefefe"/><path d="M1015.146 503.863l102.416 26.053-5.316-58.733zm-73.644 191.763l24.872 58.174L1066.7 634.889zm24.872 58.174l52.993 151.757 95.286-45.031z" fill="#fbfbfb" stroke="#fbfbfb"/><path d="M966.374 753.8l148.279 106.726 5.867-85.144z" fill="#fdfdfd" stroke="#fdfdfd"/><path d="M966.374 753.8l154.146 21.582-53.82-140.493z" fill="#fdfdfd" stroke="#fdfdfd"/><path d="M1019.367 905.557l-57.96 64.07 113.07 32.09z" fill="#fbfbfb" stroke="#fbfbfb"/><path d="M1019.367 905.557l55.11 96.16 40.176-141.191z" fill="#f8f8f8" stroke="#f8f8f8"/><path d="M1123.084-211.515L1067.64-65.721l171.511-72.845z" fill="#fafafa" stroke="#fafafa"/><path d="M1123.084-211.515l116.067 72.95-46.907-74.947z" fill="#f9f9f9" stroke="#f9f9f9"/><path d="M1067.64-65.72l-4.064 41.051 103.495 12.61z" fill="#fcfcfc" stroke="#fcfcfc"/><path d="M1067.64-65.72l99.43 53.661 72.081-126.507z" fill="#fafafa" stroke="#fafafa"/><path d="M1063.576-24.669l28.071 98.054 75.424-85.444zm28.071 98.054l-30.243 148.058 108.765-146.721z" fill="#fff" stroke="#fff"/><path d="M1091.647 73.385l78.522 1.337-3.098-86.78z" fill="#fafafa" stroke="#fafafa"/><path d="M1061.404 221.443l4.304 145.284 144.81-64.655z" fill="#fcfcfc" stroke="#fcfcfc"/><path d="M1061.404 221.443l149.114 80.629-8.362-61.769z" fill="#fbfbfb" stroke="#fbfbfb"/><path d="M1061.404 221.443l140.752 18.86-31.987-165.581z" fill="#fefefe" stroke="#fefefe"/><path d="M1065.708 366.727l46.538 104.456 54.58-3.473z" fill="#f8f8f8" stroke="#f8f8f8"/><path d="M1065.708 366.727l101.117 100.983 43.693-165.638z" fill="#f6f6f6" stroke="#f6f6f6"/><path d="M1112.246 471.183l5.316 58.733 49.263-62.206z" fill="#f7f7f7" stroke="#f7f7f7"/><path d="M1117.562 529.916L1066.7 634.89l118.2-3.223z" fill="#f9f9f9" stroke="#f9f9f9"/><path d="M1117.562 529.916l67.338 101.75 6.234-54.196zm0 0l73.572 47.554-24.309-109.76z" fill="#f6f6f6" stroke="#f6f6f6"/><path d="M1066.7 634.889l53.82 140.493 37.623-29.529z" fill="#f8f8f8" stroke="#f8f8f8"/><path d="M1066.7 634.889l91.443 110.964 26.757-114.187z" fill="#f7f7f7" stroke="#f7f7f7"/><path d="M1120.52 775.382l-5.867 85.144 109.491-11.859z" fill="#f6f6f6" stroke="#f6f6f6"/><path d="M1120.52 775.382l103.624 73.285-66-102.814z" fill="#fff" stroke="#fff"/><path d="M1114.653 860.526l-40.176 141.191 132.424-58.585z" fill="#fefefe" stroke="#fefefe"/><path d="M1114.653 860.526l92.248 82.606 17.243-94.465z" fill="#f6f6f6" stroke="#f6f6f6"/><path d="M1074.477 1001.717l316.062 8.718-56.18-34.071z" fill="#f8f8f8" stroke="#f8f8f8"/><path d="M1074.477 1001.717l259.881-25.353-127.457-33.232z" fill="#fcfcfc" stroke="#fcfcfc"/><path d="M1192.244-213.512l46.907 74.946 82.385-57.525z" fill="#f8f8f8" stroke="#f8f8f8"/><path d="M1192.244-213.512l129.292 17.421 186.425-43.937z" fill="#fff" stroke="#fff"/><path d="M1239.151-138.566l-72.08 126.507 164.14 26.1z" fill="#f9f9f9" stroke="#f9f9f9"/><path d="M1239.151-138.566l92.06 152.607 18.609-85.08z" fill="#fff" stroke="#fff"/><path d="M1239.151-138.566l110.669 67.528-28.284-125.053z" fill="#fafafa" stroke="#fafafa"/><path d="M1167.07-12.059l3.1 86.78 161.041-60.68z" fill="#f6f6f6" stroke="#f6f6f6"/><path d="M1170.17 74.722l31.986 165.581 63.652-107.164z" fill="#fafafa" stroke="#fafafa"/><path d="M1170.17 74.722l95.638 58.417 65.403-119.098zm31.986 165.581l8.362 61.769 63.9-82.419z" fill="#fff" stroke="#fff"/><path d="M1202.156 240.303l72.261-20.65-8.609-86.514z" fill="#f9f9f9" stroke="#f9f9f9"/><path d="M1210.518 302.072l-43.693 165.638 117.62 4.226z" fill="#f8f8f8" stroke="#f8f8f8"/><path d="M1210.518 302.072l73.927 169.864 51.833-168.081z" fill="#f8f8f8" stroke="#f8f8f8"/><path d="M1210.518 302.072l125.76 1.783-61.86-84.202z" fill="#f9f9f9" stroke="#f9f9f9"/><path d="M1166.825 467.71l24.31 109.76 91.052-33.073z" fill="#f8f8f8" stroke="#f8f8f8"/><path d="M1166.825 467.71l115.362 76.687 2.258-72.46z" fill="#fafafa" stroke="#fafafa"/><path d="M1191.134 577.47l-6.234 54.196 79.816 39.462z" fill="#fefefe" stroke="#fefefe"/><path d="M1191.134 577.47l73.582 93.658 17.471-126.731z" fill="#f6f6f6" stroke="#f6f6f6"/><path d="M1184.9 631.666l-26.757 114.187 106.573-74.725z" fill="#fff" stroke="#fff"/><path d="M1158.143 745.853l66.001 102.814 111.439-65.7z" fill="#f9f9f9" stroke="#f9f9f9"/><path d="M1158.143 745.853l177.44 37.113-70.867-111.838z" fill="#f6f6f6" stroke="#f6f6f6"/><path d="M1224.144 848.667l-17.243 94.465 107.574-41.322z" fill="#fff" stroke="#fff"/><path d="M1224.144 848.667l90.331 53.143 21.108-118.844z" fill="#fbfbfb" stroke="#fbfbfb"/><path d="M1206.9 943.132l127.458 33.232-19.883-74.554z" fill="#fcfcfc" stroke="#fcfcfc"/><path d="M1321.536-196.09l28.284 125.052 30.946-126.312z" fill="#f8f8f8" stroke="#f8f8f8"/><path d="M1321.536-196.09l59.23-1.26 127.195-42.678z" fill="#fafafa" stroke="#fafafa"/><path d="M1349.82-71.038l-18.61 85.078 67.782-12.794z" fill="#fdfdfd" stroke="#fdfdfd"/><path d="M1349.82-71.038l49.173 72.285 9.194-76.207z" fill="#f7f7f7" stroke="#f7f7f7"/><path d="M1349.82-71.038l58.367-3.922-27.42-122.39z" fill="#fcfcfc" stroke="#fcfcfc"/><path d="M1331.211 14.04l-65.403 119.099 154.577-5.781z" fill="#f7f7f7" stroke="#f7f7f7"/><path d="M1331.211 14.04l89.174 113.318-21.392-126.111z" fill="#fff" stroke="#fff"/><path d="M1265.808 133.139l8.61 86.514 145.967-92.295z" fill="#fafafa" stroke="#fafafa"/><path d="M1274.417 219.653l61.861 84.202 92.091-49.869z" fill="#fbfbfb" stroke="#fbfbfb"/><path d="M1274.417 219.653l153.952 34.333-7.984-126.628z" fill="#fdfdfd" stroke="#fdfdfd"/><path d="M1336.278 303.855l-51.833 168.081 173.284-41.496z" fill="#fafafa" stroke="#fafafa"/><path d="M1336.278 303.855L1457.73 430.44l2.5-94.773z" fill="#fdfdfd" stroke="#fdfdfd"/><path d="M1336.278 303.855l123.95 31.812-31.859-81.68z" fill="#f7f7f7" stroke="#f7f7f7"/><path d="M1284.445 471.936l-2.258 72.46 98.646 5.342z" fill="#fdfdfd" stroke="#fdfdfd"/><path d="M1284.445 471.936l96.388 77.802 76.896-119.298z" fill="#f8f8f8" stroke="#f8f8f8"/><path d="M1282.187 544.397l-17.471 126.731 116.117-121.39zm-17.471 126.731l70.867 111.838 54.432-86.897z" fill="#fefefe" stroke="#fefefe"/><path d="M1264.716 671.128l125.3 24.941-9.183-146.331z" fill="#fdfdfd" stroke="#fdfdfd"/><path d="M1335.583 782.966l-21.108 118.844 106.31-71.442z" fill="#fafafa" stroke="#fafafa"/><path d="M1335.583 782.966l85.202 47.402-18.823-89.58zm0 0l66.379-42.179-11.947-44.718z" fill="#fbfbfb" stroke="#fbfbfb"/><path d="M1314.475 901.81l19.883 74.554 86.427-145.996z" fill="#fff" stroke="#fff"/><path d="M1334.358 976.364l56.181 34.071 30.246-180.067zm46.408-1173.714l27.42 122.39 95.288-16.496z" fill="#f6f6f6" stroke="#f6f6f6"/><path d="M1380.766-197.35l122.708 105.894 4.487-148.572z" fill="#fbfbfb" stroke="#fbfbfb"/><path d="M1408.187-74.96l-9.194 76.207 104.48-92.703z" fill="#f9f9f9" stroke="#f9f9f9"/><path d="M1398.993 1.247l21.392 126.11L1543.371-22.12z" fill="#fbfbfb" stroke="#fbfbfb"/><path d="M1398.993 1.247l144.378-23.367-39.897-69.336z" fill="#f7f7f7" stroke="#f7f7f7"/><path d="M1420.385 127.358l7.984 126.628 81.329-79.374z" fill="#fbfbfb" stroke="#fbfbfb"/><path d="M1420.385 127.358l89.313 47.254 55.817-31.168z" fill="#f8f8f8" stroke="#f8f8f8"/><path d="M1420.385 127.358l145.13 16.086-22.144-165.564z" fill="#fff" stroke="#fff"/><path d="M1428.37 253.986l31.858 81.681 95.564.821z" fill="#f8f8f8" stroke="#f8f8f8"/><path d="M1428.37 253.986l127.422 82.502-46.094-161.876z" fill="#f8f8f8" stroke="#f8f8f8"/><path d="M1460.228 335.667l-2.499 94.773 98.063-93.952z" fill="#f6f6f6" stroke="#f6f6f6"/><path d="M1457.729 430.44l-76.896 119.298 161.545-5.483z" fill="#f8f8f8" stroke="#f8f8f8"/><path d="M1457.729 430.44l84.649 113.815 19.948-107.563z" fill="#f9f9f9" stroke="#f9f9f9"/><path d="M1457.729 430.44l104.597 6.252-6.534-100.204z" fill="#fcfcfc" stroke="#fcfcfc"/><path d="M1380.833 549.738l9.182 146.331 153.203-83.697z" fill="#f6f6f6" stroke="#f6f6f6"/><path d="M1380.833 549.738l162.385 62.634-.84-68.117z" fill="#fff" stroke="#fff"/><path d="M1390.015 696.069l11.947 44.718 141.256-128.415z" fill="#f7f7f7" stroke="#f7f7f7"/><path d="M1401.962 740.787l18.823 89.58 63.888 1.103z" fill="#fefefe" stroke="#fefefe"/><path d="M1401.962 740.787l82.711 90.683 58.749-31.076z" fill="#fafafa" stroke="#fafafa"/><path d="M1401.962 740.787l141.46 59.607-.204-188.022z" fill="#f6f6f6" stroke="#f6f6f6"/><path d="M1420.785 830.368l-30.246 180.067 131.677-32.016z" fill="#fcfcfc" stroke="#fcfcfc"/><path d="M1420.785 830.368l101.43 148.051-37.542-146.95z" fill="#fefefe" stroke="#fefefe"/><path d="M1507.96-240.028l-4.486 148.572 39.897 69.336z" fill="#fff" stroke="#fff"/><path d="M1565.515 143.444l-55.817 31.168 46.094 161.876z" fill="#fbfbfb" stroke="#fbfbfb"/><path d="M1565.515 143.444l-9.723 193.044 6.534 100.204z" fill="#f9f9f9" stroke="#f9f9f9"/><path d="M1562.326 436.692l-19.948 107.563.84 68.117z" fill="#fdfdfd" stroke="#fdfdfd"/><path d="M1562.326 436.692l-19.108 175.68.204 188.022zm-18.904 363.702l-58.749 31.076 37.543 146.95z" fill="#fafafa" stroke="#fafafa"/></g></svg>