<svg height="16" viewBox="0 0 16 16" width="16" xmlns="http://www.w3.org/2000/svg"><path d="m32.8750246 69.8351169c3.107647 0 5.6250147 2.5173677 5.6250147 5.6250148 0 3.107647-2.5173677 5.6250147-5.6250147 5.6250147-1.111114 0-2.1354223-.3125008-3.0034801-.8680578l-4.2361222 4.2534834c-.2430562.2430562-.5729182.3645842-.885419.3645842-.329862 0-.6423628-.121528-.885419-.3645842-.4861124-.4861124-.4861124-1.2847256 0-1.770838l4.2534834-4.2361222c-.555557-.8680579-.8680579-1.8923661-.8680579-3.0034801 0-3.1076471 2.5173677-5.6250148 5.6250148-5.6250148zm0 9.3750246c2.0659776 0 3.7500098-1.6840322 3.7500098-3.7500098 0-2.0659777-1.6840322-3.7500099-3.7500098-3.7500099-2.0659777 0-3.7500098 1.6840322-3.7500098 3.7500099 0 2.0659776 1.6840321 3.7500098 3.7500098 3.7500098z" fill="#0f1a2a" fill-rule="evenodd" transform="matrix(-1 0 0 1 39.00004 -69)"/></svg>