<svg enable-background="new 0 0 30 30" height="30" viewBox="0 0 30 30" width="30" xmlns="http://www.w3.org/2000/svg"><path d="m15.774 20.109c1.367-1.277 2.226-3.09 2.226-5.109 0-3.866-3.134-7-7-7s-7 3.134-7 7c0 2.019.859 3.832 2.226 5.109-3.68 1.778-6.226 5.53-6.226 9.891h22c0-4.361-2.547-8.113-6.226-9.891zm-9.774-5.109c0-2.762 2.239-5 5-5s5 2.238 5 5-2.239 5-5 5-5-2.238-5-5zm-3.776 13c.707-3.104 3.027-5.597 6.026-6.563.844.362 1.773.563 2.75.563s1.906-.201 2.75-.563c2.998.966 5.318 3.458 6.025 6.563zm16.776-26c2.762 0 5 2.238 5 5 0 2.604-2 4.719-4.543 4.954.229.63.391 1.29.473 1.977.637-.085 1.25-.249 1.82-.493 2.998.966 5.318 3.458 6.025 6.563h-8.515c.732.6 1.393 1.268 1.969 2h8.771c0-4.361-2.547-8.113-6.227-9.891 1.368-1.278 2.227-3.091 2.227-5.11 0-3.866-3.135-7-7-7-3.55 0-6.475 2.645-6.931 6.069.687.082 1.347.245 1.977.473.235-2.544 2.35-4.542 4.954-4.542z"/></svg>