<svg id="Layer_1" data-name="Layer 1" xmlns="http://www.w3.org/2000/svg" viewBox="0 0 561.26 207.52"><defs><style>.cls-1{fill:#00182f;}.cls-2{fill:#ff5666;}</style></defs><title>Edit-Logo-Dark</title><g id="Group_115" data-name="Group 115"><path id="Path_81" data-name="Path 81" class="cls-1" d="M74.69,55.82c-43.85,0-73.08,30.94-73.08,77.37,0,47.28,30.09,77.38,73.67,77.38,35.54,0,61.33-19.21,68.78-49.32H109.38a33.68,33.68,0,0,1-33.81,21.21c-20.92,0-35.82-11.75-38.4-38.12H147.79v-8.57C147.76,88.77,120,55.82,74.69,55.82ZM37.43,119.15C40.87,94.79,55.2,83.9,74.4,83.9c21.5,0,34.39,14.33,37.25,35.25Z" transform="translate(-1.61 -3.09)"/><path id="Path_82" data-name="Path 82" class="cls-1" d="M273.46,78.46a52.71,52.71,0,0,0-45.57-22.64c-41,0-66.49,30.37-66.49,77.37s25.51,77.38,66.49,77.38a53.49,53.49,0,0,0,46.71-24.08v20.64h35V3.09h-36.1ZM236.2,180.76c-23.21,0-37.83-15.18-37.83-46.42S213,85.62,236.2,85.62c23.5,0,38.11,16.34,38.11,47.57s-14.59,47.57-38.09,47.57Z" transform="translate(-1.61 -3.09)"/><path id="Path_83" data-name="Path 83" class="cls-1" d="M474,16.27H438.21v43H415.28v27.5h22.93v83.68c0,27.23,14.9,37.83,46.14,37.83,5.73,0,12.32-.59,18.92-1.14V179.62H491c-12,0-16.91-3.16-16.91-12.9v-80h29.23V59.25H474Z" transform="translate(-1.61 -3.09)"/><rect id="Rectangle_135" data-name="Rectangle 135" class="cls-2" x="519.13" y="163.06" width="42.13" height="40.98"/><rect id="Rectangle_136" data-name="Rectangle 136" class="cls-1" x="353.63" y="3.15" width="35.53" height="33.82"/><path id="Path_84" data-name="Path 84" class="cls-1" d="M391.06,59.26H331.92v27.5h23v92.93h-23V207.2H414.1V179.69h-23Z" transform="translate(-1.61 -3.09)"/></g></svg>